<svg width="219" height="219" viewBox="0 0 219 219" fill="none" xmlns="http://www.w3.org/2000/svg">
<rect width="219" height="219" fill="white"/>
<path fill-rule="evenodd" clip-rule="evenodd" d="M174.376 60.5873C146.075 44.3469 124.009 92.0181 107.981 98.0194C75.6807 110.114 15.6846 120.633 27.1264 144.147C42.8369 176.433 97.5005 179.655 136.592 176.433C187.437 172.243 230.018 92.5173 174.376 60.5873Z" fill="#20CFB1"/>
<path fill-rule="evenodd" clip-rule="evenodd" d="M170.272 112.624C170.563 112.882 170.663 113.284 170.736 113.67L171.179 116.089C171.241 116.425 171.523 116.585 171.632 116.393C171.747 116.19 172.054 116.274 172.26 116.384L174.83 117.752C173.955 118.379 172.924 118.786 171.856 118.924C171.33 118.992 171.245 119.712 171.301 120.24L171.453 121.675C171.501 122.123 170.797 122.275 170.445 121.994C170.094 121.713 169.961 121.244 169.684 120.889C169.236 120.317 168.445 120.103 167.722 120.17C166.998 120.236 166.321 120.539 165.659 120.838C165.232 121.031 164.762 120.52 164.796 120.053C164.825 119.641 165.089 119.295 165.358 118.974L165.465 118.846C165.767 118.488 166.068 118.063 166.017 117.597C165.975 117.21 165.698 116.897 165.42 116.619L165.258 116.456C165 116.192 164.756 115.9 164.711 115.54C164.659 115.129 165.035 114.655 165.429 114.783C166.948 115.274 168.777 114.317 169.239 112.789C169.359 112.392 169.961 112.35 170.272 112.624Z" fill="white"/>
<path fill-rule="evenodd" clip-rule="evenodd" d="M170.272 112.624C170.563 112.882 170.663 113.284 170.736 113.67L171.179 116.089C171.241 116.425 171.105 116.946 170.784 116.828C170.327 115.859 170.084 114.789 170.076 113.717C169.902 113.549 169.642 113.799 169.534 114.015L168.449 116.175C168.258 116.556 167.688 116.472 167.312 116.273L167.11 116.166C166.784 115.997 166.428 115.847 166.119 116.014C165.961 116.487 166.663 116.723 167.028 117.064C167.444 117.452 167.419 118.151 167.128 118.64C166.837 119.13 166.346 119.46 165.87 119.773C166.553 119.886 167.282 119.687 167.812 119.241C168.052 119.04 168.271 118.782 168.577 118.718C169.051 118.619 169.477 119.03 169.722 119.447C169.968 119.863 170.163 120.351 170.583 120.592C170.793 120.261 170.681 119.845 170.549 119.461L170.486 119.283C170.334 118.855 170.265 118.287 170.638 118.027C170.778 117.93 170.952 117.901 171.123 117.883L172.956 117.699L171.9 116.93C171.723 116.8 171.523 116.585 171.632 116.393C171.747 116.19 172.054 116.274 172.26 116.384L174.83 117.752C173.955 118.379 172.924 118.786 171.856 118.924C171.33 118.992 171.245 119.712 171.301 120.24L171.453 121.675C171.501 122.123 170.797 122.275 170.445 121.994C170.094 121.713 169.961 121.244 169.684 120.889C169.236 120.317 168.445 120.103 167.722 120.17C166.998 120.236 166.321 120.539 165.659 120.838C165.232 121.031 164.762 120.52 164.796 120.053C164.825 119.641 165.089 119.295 165.358 118.974L165.465 118.846C165.767 118.488 166.068 118.063 166.017 117.597C165.975 117.21 165.698 116.897 165.42 116.619L165.258 116.456C165 116.192 164.756 115.9 164.711 115.54C164.659 115.129 165.035 114.655 165.429 114.783C166.948 115.274 168.777 114.317 169.239 112.789C169.359 112.392 169.961 112.35 170.272 112.624Z" fill="#D2EF05"/>
<path fill-rule="evenodd" clip-rule="evenodd" d="M69.1526 69.2412C68.0528 64.3537 71.0492 56.2405 76.4027 52.9785C81.7562 49.7164 88.604 49.4929 94.5662 51.4301C94.3761 45.6703 100.217 40.7279 105.96 41.2037C111.704 41.6796 116.469 46.8359 117.24 52.5468C117.842 56.9967 115.557 62.2971 111.14 63.1031C112.701 68.6821 113.57 74.5521 112.713 80.2817C111.856 86.0113 109.129 91.6083 104.527 95.1281C103.257 96.8369 104.216 99.4148 105.889 100.733C107.562 102.051 109.726 102.514 111.727 103.241C120.113 106.289 126.017 114.562 127.393 123.378C128.77 132.194 126.021 141.336 121.053 148.748C117.651 153.824 113.022 158.333 107.231 160.285C99.1022 163.026 90.19 160.357 82.2969 156.998C79.2881 155.718 76.224 154.263 74.1001 151.777C71.8232 149.111 67.5199 150.551 64.4166 152.181C66.4801 153.037 68.5435 153.893 70.607 154.749C71.0504 154.933 71.5314 155.152 71.737 155.586C72.1698 156.499 71.1036 157.378 70.2011 157.832C69.2313 158.32 68.2614 158.809 67.2916 159.297C61.3387 162.295 55.1388 165.358 48.4763 165.543C41.1921 165.745 34.3114 162.489 27.7558 159.308C27.0271 158.954 26.2547 158.56 25.8585 157.854C25.4623 157.147 25.6838 156.046 26.4668 155.839C33.8211 153.894 40.7839 150.48 46.8255 145.858C46.3634 142.98 46.4723 140.012 47.1441 137.176C47.2413 136.766 47.3811 136.316 47.7466 136.106C48.6453 135.59 49.4258 136.95 49.5846 137.974C49.9854 140.559 50.3862 143.145 50.787 145.73C55.5997 145.197 60.2706 143.429 64.2297 140.642C61.1418 138.155 58.0539 135.668 54.966 133.182C53.1843 131.747 51.4645 130.888 50.5023 128.079C49.8608 126.206 50.3785 124.281 52.0555 122.306C50.1834 112.977 49.3643 105.944 49.5981 101.208C49.6605 99.944 49.802 98.5793 50.6529 97.6423C52.1549 95.9884 55.1041 96.7016 56.475 98.4657C57.846 100.23 58.0754 102.597 58.2527 104.824C63.4727 104.186 68.6928 103.549 73.9128 102.911C75.8226 102.678 77.8003 102.45 79.6385 103.018C81.9446 103.731 83.7968 105.751 84.308 108.11C86.5107 107.515 88.9099 106.782 90.1539 104.869C91.3978 102.956 90.3442 99.6289 88.0646 99.7276C80.9338 100.036 73.9599 94.7447 72.337 87.7942C71.9242 86.0265 71.7638 84.0621 70.5228 82.7373C68.5564 80.6379 67.058 77.9314 67.0676 75.0548C67.0772 72.1783 68.2824 71.8351 69.1526 69.2412ZM26.5874 157.766C26.7479 158.006 27.0281 158.131 27.2935 158.245C30.0166 159.41 32.7396 160.575 35.4626 161.741C36.7017 162.271 37.9447 162.803 39.2404 163.173C42.854 164.207 46.7479 163.955 50.3408 165.059C50.7766 165.193 51.2444 165.055 51.6783 164.915C54.8119 163.905 57.9087 162.782 60.9604 161.547C64.1531 160.254 67.3169 158.829 70.1516 156.872C70.4095 156.694 70.6771 156.497 70.7948 156.206C70.9125 155.916 70.804 155.512 70.5026 155.426C68.5896 154.883 66.7043 154.242 64.8564 153.507C64.2624 153.271 63.5936 152.934 63.4676 152.307C61.8397 152.372 60.4162 153.399 59.2155 154.5C58.0147 155.601 56.8867 156.845 55.4072 157.527C53.9277 158.209 51.9419 158.15 50.9169 156.884C50.8075 156.748 50.6976 156.593 50.5292 156.549C50.3609 156.505 50.1447 156.672 50.2231 156.828C50.4263 157.23 49.9899 157.739 49.54 157.711C49.0902 157.683 48.7385 157.273 48.6278 156.836C48.517 156.399 47.916 157.18 47.0449 157.31C46.1739 157.44 45.2497 156.881 44.9604 156.049C44.7219 155.363 43.787 155.351 43.0726 155.223C41.4483 154.931 40.2147 153.229 40.4432 151.594C35.7749 153.151 31.1912 154.962 26.7192 157.016C26.4568 157.136 26.4268 157.526 26.5874 157.766Z" fill="white"/>
<path d="M92.1256 90.52C93.4963 90.52 94.6076 89.4088 94.6076 88.038C94.6076 86.6672 93.4963 85.556 92.1256 85.556C90.7548 85.556 89.6436 86.6672 89.6436 88.038C89.6436 89.4088 90.7548 90.52 92.1256 90.52Z" fill="#D2EF05"/>
<path d="M74.898 88.476C75.6237 88.476 76.212 87.8877 76.212 87.162C76.212 86.4363 75.6237 85.848 74.898 85.848C74.1723 85.848 73.584 86.4363 73.584 87.162C73.584 87.8877 74.1723 88.476 74.898 88.476Z" fill="#D2EF05"/>
<path fill-rule="evenodd" clip-rule="evenodd" d="M103.978 97.9994C104.206 99.1792 104.881 100.322 105.781 101.031C107.453 102.349 111.213 103.706 113.214 104.433C113.396 104.499 112.369 105.079 111.044 106.362C107.455 109.834 99.6081 116.05 91.9422 112.926C91.0462 112.561 90.2969 112.141 89.6867 111.695C89.1244 111.284 94.2856 111.876 99.1105 110.961C103.962 110.041 108.475 107.611 107.267 105.685C106.132 103.874 102.938 100.807 102.689 99.0031C102.357 96.5996 103.783 96.9855 103.978 97.9994Z" fill="#E7EAEE"/>
<path fill-rule="evenodd" clip-rule="evenodd" d="M26.4893 157.083C26.4893 156.12 29.5252 155.341 34.7151 153.389C38.2846 152.046 45.2423 148.161 48.6655 147.98C50.9434 147.86 60.0464 151.192 65.9873 153.586C68.9744 154.789 71.2787 155.543 71.2787 155.929C71.2787 156.704 64.9361 160.449 58.4536 162.909C55.2896 164.11 52.321 165.186 49.5985 165.113C41.2984 164.892 26.4893 159.52 26.4893 157.083Z" fill="white"/>
<path fill-rule="evenodd" clip-rule="evenodd" d="M143.746 77.1153C131.844 82.1988 121.901 90.8851 112.427 99.7183L111.848 100.259C111.295 100.776 110.456 101.316 109.86 100.85L111.701 99.1747C121.333 90.4235 131.292 81.7462 143.209 76.5907C152.372 72.627 152.274 73.473 143.746 77.1153ZM92.4784 161.791L98.0618 167.872C98.3354 168.17 98.6203 168.49 98.6969 168.887C98.7735 169.285 98.5432 169.77 98.1408 169.812L86.6451 171.014C84.7357 171.214 82.7885 169.89 82.2387 168.05C81.6889 166.211 82.5689 164.056 84.2319 163.097C85.8949 162.138 88.1759 162.44 89.5564 163.774C89.8983 164.105 90.4989 163.824 90.7416 163.415C90.9844 163.006 91.0368 162.505 91.2876 162.101C91.5385 161.697 92.1568 161.44 92.4784 161.791ZM83.2081 165.301C82.4953 166.654 82.946 168.486 84.1662 169.408C84.7641 169.86 85.4982 170.102 86.2379 170.221C87.2828 170.39 88.4951 170.262 89.1669 169.444C89.4121 169.146 89.5624 168.78 89.665 168.407C90.0064 167.167 89.8328 165.794 89.1936 164.678C89.0196 164.374 88.752 164.057 88.4022 164.072C88.236 164.079 88.0817 164.163 87.9162 164.18C87.6408 164.209 87.3858 164.052 87.1349 163.935C85.7486 163.289 83.921 163.948 83.2081 165.301ZM91.9824 163.01C91.7629 163.926 91.3087 164.784 90.6751 165.48C90.4967 165.676 90.5405 165.979 90.5766 166.241C90.7528 167.52 90.4616 168.858 89.77 169.948C90.9033 169.68 92.0623 169.519 93.2259 169.47C94.821 169.402 96.4853 169.53 97.9472 168.888C97.1662 168.548 96.5032 167.944 96.0931 167.197C95.8519 166.758 95.5182 166.378 95.1872 166.002L92.645 163.113C92.4613 162.905 92.0472 162.74 91.9824 163.01ZM63.1121 162.956C63.4766 164.094 64.8477 164.484 66.0356 164.689L73.9627 166.013C75.7957 166.319 77.677 166.624 79.4999 166.263C79.8438 166.195 80.0257 166.741 79.7988 167.008C79.5719 167.276 79.177 167.307 78.8264 167.309C77.2383 167.314 75.6595 167.103 74.0877 166.866L72.4136 166.611C69.4505 166.156 66.4889 165.671 63.5886 164.916C63.0922 164.787 62.5779 164.639 62.1979 164.295C61.8179 163.95 61.6203 163.348 61.8877 162.911C62.1551 162.473 62.9556 162.467 63.1121 162.956ZM105.96 41.2037C111.704 41.6796 116.469 46.8359 117.24 52.5468C117.842 56.9967 115.557 62.2971 111.14 63.1031C112.701 68.6821 113.57 74.5521 112.713 80.2817C111.856 86.0113 109.129 91.6083 104.527 95.1281C103.257 96.8369 104.216 99.4148 105.889 100.733C107.562 102.051 109.726 102.514 111.727 103.241C120.113 106.289 126.017 114.562 127.393 123.378C128.77 132.194 126.021 141.336 121.053 148.748C117.651 153.824 113.022 158.333 107.231 160.285C99.1835 162.998 90.3681 160.41 82.534 157.099L82.2969 156.998C79.3508 155.745 76.3517 154.323 74.2341 151.931L74.1001 151.777C71.8232 149.111 67.5199 150.551 64.4166 152.181L70.607 154.749C71.0504 154.933 71.5314 155.152 71.737 155.586C72.1699 156.499 71.1036 157.378 70.2011 157.832L66.5664 159.662C60.8352 162.539 54.8687 165.365 48.4763 165.543C41.2768 165.743 34.4715 162.565 27.9846 159.419L27.573 159.218C26.901 158.886 26.2217 158.501 25.8585 157.854C25.4623 157.147 25.6838 156.046 26.4668 155.839C33.8211 153.894 40.7839 150.48 46.8255 145.858C46.3634 142.98 46.4723 140.012 47.1441 137.176L47.1784 137.038C47.2752 136.669 47.4217 136.293 47.7466 136.106C48.6453 135.59 49.4258 136.95 49.5846 137.974L50.787 145.73C55.5997 145.197 60.2706 143.429 64.2297 140.642L54.717 132.981C53.0138 131.603 51.2894 130.113 50.5023 128.079C49.6767 125.945 50.3409 123.053 52.4743 122.228C52.6427 114.146 52.2167 106.052 51.2009 98.033C49.7964 106.042 50.9252 114.254 52.0555 122.306C50.1174 115.597 49.2781 108.572 49.5802 101.596L49.5981 101.208C49.6605 99.944 49.802 98.5793 50.6529 97.6423C52.1549 95.9884 55.1041 96.7016 56.475 98.4657C57.846 100.23 58.0754 102.597 58.2527 104.824L74.2716 102.867C76.0693 102.652 77.9152 102.485 79.6385 103.018C81.9447 103.731 83.7968 105.751 84.308 108.11L84.6837 108.007C86.7786 107.428 88.9803 106.673 90.1539 104.869C91.3846 102.976 90.3663 99.6995 88.1369 99.7256L88.0646 99.7276C80.9338 100.036 73.96 94.7447 72.337 87.7942C71.9242 86.0265 71.7638 84.0621 70.5228 82.7373C68.5564 80.6379 67.058 77.9314 67.0676 75.0548C67.0772 72.1783 68.9114 69.2119 71.7045 68.5242C74.4976 67.8366 77.8033 70.167 77.5623 73.0334C78.9174 72.8954 80.3035 73.0718 81.5809 73.5447C80.8524 71.5807 82.7407 69.4128 84.8159 69.1278C86.8911 68.8427 88.9134 69.8793 90.6391 71.0665C92.3649 72.2538 94.0139 73.6516 96.0204 74.2534L96.1128 74.0393C96.5275 73.0712 96.9094 72.0371 96.7005 71.0137C96.476 69.9144 95.2375 68.9637 94.2348 69.467C93.5308 67.4502 92.4107 65.5796 90.9652 64.0068L86.9478 65.9009C86.4302 65.1257 86.1131 64.2178 86.0356 63.2889C83.3831 64.8048 80.504 65.9236 77.5238 66.5964L77.8288 64.3211L68.9231 68.9468C67.6081 62.8171 71.0492 56.2405 76.4027 52.9785C81.7562 49.7164 88.604 49.4929 94.5662 51.4301C94.3761 45.6703 100.217 40.7279 105.96 41.2037ZM149.773 141.109C144.642 142.347 139.662 144.206 134.975 146.632L134.636 146.809C132.039 148.178 129.489 149.817 127.861 152.25C128.961 152.06 130.135 152.346 131.022 153.022C131.583 153.449 132.052 154.089 132.018 154.792C132.001 155.157 131.849 155.506 131.645 155.808C130.846 156.992 129.155 157.472 127.854 156.886C126.553 156.299 125.792 154.714 126.15 153.332C120.629 155.217 115.882 159.273 113.153 164.429L113.062 164.603C112.928 164.863 112.763 165.153 112.478 165.218C112.086 165.306 111.737 164.869 111.755 164.467C111.773 164.066 112.03 163.72 112.279 163.404C115.497 159.318 119.257 155.429 124.069 153.458L124.431 153.312C125.566 152.862 126.754 152.42 127.488 151.459C129.266 149.13 131.825 147.531 134.424 146.178C136.75 144.967 139.157 143.909 141.622 143.015C144.096 142.118 146.626 141.386 149.161 140.676L157.749 138.285C155.426 139.918 152.533 140.443 149.773 141.109ZM40.4432 151.594C35.7749 153.151 31.1912 154.962 26.7192 157.016C26.4568 157.136 26.4268 157.526 26.5874 157.766C26.7479 158.006 27.0281 158.131 27.2935 158.245L35.4626 161.741C36.7017 162.271 37.9447 162.803 39.2404 163.173C42.854 164.207 46.7479 163.955 50.3408 165.059C50.7766 165.193 51.2444 165.055 51.6783 164.915C54.812 163.905 57.9087 162.782 60.9604 161.547C64.1531 160.254 67.317 158.829 70.1516 156.872C70.4095 156.694 70.6771 156.497 70.7948 156.206C70.9125 155.916 70.804 155.512 70.5026 155.426C68.5896 154.883 66.7043 154.242 64.8564 153.507L64.7282 153.455C64.1696 153.221 63.5846 152.889 63.4676 152.307C61.8397 152.372 60.4162 153.399 59.2155 154.5C58.0147 155.601 56.8867 156.845 55.4072 157.527C53.9277 158.209 51.9419 158.15 50.9169 156.884L50.8507 156.801C50.7612 156.691 50.6639 156.584 50.5292 156.549C50.3609 156.505 50.1447 156.672 50.2231 156.828C50.4263 157.23 49.9899 157.739 49.54 157.711C49.0902 157.683 48.7385 157.273 48.6278 156.836C48.5566 156.555 48.5628 156.265 48.5969 155.975L48.6054 155.904C48.4054 156.613 47.7785 157.2 47.0449 157.31C46.1739 157.44 45.2497 156.881 44.9604 156.049C44.7219 155.363 43.787 155.351 43.0726 155.223C41.4483 154.931 40.2147 153.229 40.4432 151.594ZM51.4755 124.313C50.5132 126.025 51.407 128.191 52.5923 129.757C56.3091 134.666 62.5345 137.022 66.7822 141.48C67.8495 142.601 68.7798 143.842 69.6982 145.087L72.5849 149.008C73.1155 149.729 73.6479 150.451 74.267 151.097C75.8814 152.782 78.0069 153.869 80.1093 154.881C84.3751 156.933 88.7635 158.819 93.395 159.799C98.0265 160.779 102.948 160.812 107.404 159.215C111.575 157.719 115.168 154.851 117.961 151.41C120.686 148.052 122.687 144.159 124.291 140.14L124.407 139.846C124.638 139.26 124.865 138.647 124.817 138.019C124.766 137.355 124.412 136.751 123.999 136.228C122.424 134.236 119.792 133.109 117.272 133.42C114.791 133.727 112.519 135.448 111.61 137.775L111.568 137.886C109.593 143.24 104.674 147.267 99.1489 148.696C93.6237 150.125 87.614 149.101 82.5707 146.43C77.5275 143.759 73.4122 139.53 70.3439 134.718L70.1764 134.453C69.6222 133.563 69.1182 132.627 68.923 131.6C68.7084 130.471 68.9266 129.201 69.742 128.391C70.2806 127.856 71.0471 127.542 71.4389 126.892C71.8306 126.242 71.3706 125.093 70.6478 125.326L70.1657 125.478C66.8439 126.512 62.99 127.314 60.3176 125.163L60.0608 124.957C58.8139 123.966 57.4815 123.021 55.9324 122.68C54.2765 122.316 52.3064 122.835 51.4755 124.313ZM64.7169 141.665C60.6878 144.211 56.1407 145.933 51.436 146.695C50.8149 146.796 50.648 147.601 50.6382 148.23C50.6072 150.23 50.704 152.231 50.9279 154.218C51.4375 153.979 51.646 153.379 51.9934 152.936C52.3409 152.493 53.1337 152.25 53.4023 152.745C53.5899 153.091 53.3395 153.524 53.0198 153.753C52.7001 153.982 52.3069 154.107 52.0218 154.378C51.3125 155.052 51.6833 156.379 52.5475 156.839C53.4116 157.299 54.5047 157.059 55.3332 156.537C56.1618 156.016 56.8019 155.252 57.5044 154.57C59.0068 153.112 60.8446 152.002 62.8341 151.35C65.3598 150.523 68.1722 150.4 70.3942 148.942C70.5438 148.844 70.6987 148.728 70.7552 148.558C70.8323 148.327 70.7019 148.086 70.5634 147.879L67.9049 144.019C67.4814 143.404 66.994 142.744 66.2685 142.568C65.9367 142.487 65.583 142.518 65.2574 142.416C64.9318 142.313 64.6251 141.994 64.7169 141.665ZM46.1558 147.273C45.1193 147.757 44.5059 148.894 44.3694 150.03C44.2329 151.166 44.5009 152.31 44.8193 153.408C45.0148 154.083 45.2315 154.755 45.5548 155.379C45.7609 155.776 46.0339 156.172 46.4469 156.345C46.86 156.518 47.4332 156.363 47.5675 155.936C47.6228 155.76 47.598 155.569 47.566 155.388C47.4457 154.705 47.2298 154.039 46.927 153.416L46.7998 153.163C46.6176 152.798 46.446 152.368 46.6802 152.05C46.9039 151.746 47.4538 151.621 47.4012 151.247L46.8879 147.598C46.8729 147.492 46.8552 147.379 46.786 147.296C46.6402 147.123 46.3612 147.177 46.1558 147.273ZM128.335 152.901C127.993 152.899 127.633 152.947 127.358 153.151C127.197 153.27 127.076 153.437 126.99 153.618C126.629 154.384 126.962 155.368 127.646 155.867C128.331 156.366 129.279 156.412 130.071 156.114C130.677 155.885 131.26 155.368 131.24 154.72C131.224 154.21 130.836 153.783 130.409 153.504C129.798 153.104 129.065 152.904 128.335 152.901ZM48.1007 136.932C48.0131 136.997 47.9698 137.105 47.9328 137.207C47.3938 138.703 47.3278 140.324 47.3426 141.913C47.3799 145.899 47.892 149.88 48.8645 153.745L48.9128 153.933C49.1116 154.688 49.3834 155.462 49.999 155.929C50.1135 149.804 49.7161 143.669 48.8122 137.61C48.7536 137.216 48.4198 136.695 48.1007 136.932ZM43.2467 150.098C43.1181 150.134 43.0355 150.257 42.9712 150.374C42.4456 151.333 42.4101 152.545 42.8787 153.533C43.0888 153.976 43.4491 154.407 43.9364 154.461C44.1351 154.214 44.0443 153.857 43.9329 153.554L43.8368 153.298C43.4791 152.328 43.1855 151.279 43.5008 150.304C43.542 150.177 43.3754 150.062 43.2467 150.098ZM41.4933 151.426C41.1247 152.246 41.2889 153.277 41.8938 153.942C42.1435 153.686 42.0337 153.268 41.9484 152.921C41.815 152.379 41.7848 151.811 41.8601 151.257C41.7671 151.121 41.561 151.276 41.4933 151.426ZM49.2626 122.219C49.8213 122.7 50.1766 123.739 49.513 124.061C49.0879 124.267 48.6061 123.965 48.2047 123.716C46.1186 122.422 43.4514 122.327 41.0864 122.985C38.7215 123.643 36.6071 124.985 34.6228 126.43C32.6466 127.869 30.7412 129.449 29.2553 131.39C27.7694 133.331 26.7184 135.671 26.6321 138.114C26.5288 141.041 27.7936 143.84 29.2561 146.378C30.1883 147.996 31.2394 149.591 32.6864 150.766L32.9839 151.001C33.3944 151.33 33.8159 151.739 33.7112 152.235C32.2929 152.171 31.2634 150.902 30.4823 149.716C29.3716 148.03 28.3592 146.28 27.4519 144.476C26.6974 142.976 26.0078 141.414 25.7785 139.751C25.3475 136.623 26.6173 133.443 28.5909 130.979C30.5646 128.515 33.1913 126.665 35.8479 124.959C37.8659 123.664 39.9427 122.421 42.208 121.634C44.5441 120.822 47.3887 120.605 49.2626 122.219ZM109.215 108.444C105.855 111.579 101.39 113.505 96.8041 113.797C94.7772 113.926 92.6844 113.732 90.8504 112.86C89.0164 111.987 87.4716 110.36 87.0453 108.375L86.8931 108.422C85.5656 108.842 84.0458 109.602 84.0592 110.97C84.1159 116.771 83.9809 122.575 83.6544 128.368C83.5918 129.48 83.1685 130.939 82.0556 130.906C78.1017 130.79 74.1219 131.703 70.6139 133.531C74.5624 139.723 80.1776 145.137 87.1624 147.405C94.1472 149.673 102.571 148.256 107.466 142.781C109.035 141.026 110.19 138.951 111.302 136.873L111.558 136.393C111.794 135.95 112.035 135.423 111.825 134.966C111.69 134.675 111.98 134.372 112.245 134.193C116.151 131.549 121.967 132.266 125.113 135.78C124.864 135.292 125.091 134.62 125.584 134.383C125.977 135.013 126.06 135.827 125.803 136.524C125.973 136.764 126.285 136.377 126.312 136.084C126.731 131.517 126.699 126.909 126.214 122.348C126.039 120.704 125.801 119.049 125.213 117.503C124.697 116.148 123.922 114.906 123.072 113.731C121.117 111.027 118.741 108.628 116.055 106.649L115.86 106.507C115.434 106.202 114.986 105.921 114.483 105.784C112.491 105.242 110.724 107.035 109.215 108.444ZM82.0775 105.816C79.8568 106.564 77.4521 106.42 75.1146 106.582C71.8206 106.809 68.5711 107.666 65.593 109.092C64.3103 109.706 63.0694 110.428 61.7129 110.855C58.832 111.762 55.5296 111.202 53.109 109.395C52.5872 113.379 52.7411 117.45 53.5622 121.383C53.615 121.636 53.7813 121.959 54.028 121.883C55.6651 121.38 57.4259 122.092 58.8814 122.994C60.337 123.896 61.705 125.021 63.3583 125.468C65.2978 125.992 67.3532 125.508 69.2729 124.899L69.4166 124.853C70.4007 124.537 71.6734 124.274 72.3045 125.092C72.8367 125.783 72.5006 126.814 71.9371 127.479C71.3737 128.144 70.6095 128.638 70.1498 129.379C69.5854 130.289 69.5824 131.517 70.1425 132.429C73.8089 130.958 77.7331 130.134 81.6811 130.003C82.4729 129.977 82.7506 128.953 82.7992 128.162C83.2256 121.234 83.3565 114.287 83.1915 107.347C83.1739 106.608 82.7787 105.58 82.0775 105.816ZM141.437 124.552L141.594 124.631C142.566 125.125 143.601 125.783 143.746 126.848C143.793 127.198 143.733 127.555 143.65 127.898C143.534 128.375 143.359 128.863 142.989 129.184C142.596 129.524 142.045 129.621 141.526 129.601C140.504 129.561 139.481 129.085 138.889 128.251C138.297 127.417 138.202 126.224 138.754 125.363C139.307 124.502 140.52 124.098 141.437 124.552ZM139.921 125.743C139.315 125.996 139.097 126.815 139.35 127.421C139.603 128.026 140.203 128.425 140.827 128.629C141.465 128.838 142.287 128.821 142.667 128.268C142.794 128.084 142.853 127.862 142.888 127.641C142.965 127.16 142.918 126.628 142.609 126.253C142.225 125.788 141.571 125.695 140.96 125.66L140.808 125.652C140.508 125.639 140.198 125.628 139.921 125.743ZM63.4478 113.22C63.5244 113.511 63.4655 113.818 63.4131 114.114C63.0444 116.199 63.0177 118.345 63.3338 120.439L63.3922 120.81C63.4306 121.072 63.4464 121.349 63.2958 121.56C63.122 121.804 62.6349 121.779 62.6106 121.481C62.4032 118.943 62.2703 116.4 62.2121 113.855C62.201 113.368 62.3279 112.722 62.8127 112.684C63.1125 112.661 63.3711 112.929 63.4478 113.22ZM46.384 108.135C46.7426 108.243 47.0871 108.488 47.191 108.848C47.295 109.208 47.0584 109.663 46.6847 109.686C46.3364 109.708 46.0706 109.391 45.7505 109.252C45.176 109.002 44.5313 109.351 44.0031 109.688L43.7342 109.861C43.2271 110.195 42.7359 110.57 42.4574 111.103C42.1725 111.647 42.1487 112.288 42.1575 112.902C42.1636 113.33 42.1836 113.763 42.3157 114.17C42.6024 115.051 43.4203 115.712 44.3275 115.903C45.2347 116.094 46.205 115.846 46.9724 115.326L47.1227 115.224C47.2582 115.135 47.4002 115.057 47.5596 115.049C47.7788 115.039 48.0187 115.245 47.9442 115.452C47.9219 115.514 47.876 115.564 47.8301 115.611C46.5757 116.9 44.4096 117.175 42.8723 116.242C42.598 116.076 42.3424 115.875 42.1351 115.63C41.5122 114.894 41.3959 113.863 41.3788 112.898C41.3695 112.377 41.3824 111.847 41.5307 111.347C41.8511 110.266 42.7566 109.463 43.6977 108.842C44.4968 108.315 45.4673 107.859 46.384 108.135ZM39.1265 105.917L42.2538 109.631C42.0818 109.817 41.7803 109.829 41.5478 109.728C41.3412 109.638 41.1764 109.478 41.0212 109.313L39.1863 107.339C38.9361 109.342 38.3301 111.3 37.4051 113.094C37.315 113.269 37.5701 113.416 37.7655 113.436C38.2428 113.485 38.7254 113.431 39.196 113.338L39.4386 113.289C39.8186 113.213 40.2083 113.154 40.5626 113.294C40.9928 113.465 41.2583 114.091 40.9133 114.399C40.7007 114.589 40.3785 114.566 40.0954 114.531L37.0498 114.154L36.9562 114.141C36.6555 114.091 36.325 113.973 36.2809 113.684C36.2544 113.509 36.3514 113.342 36.4422 113.191C37.5263 111.381 38.2485 109.356 38.5551 107.27L38.6013 106.939C38.6609 106.533 38.7664 106.092 39.1265 105.917ZM145.673 111.752C146.051 112.019 146.407 112.543 146.115 112.901C145.932 113.125 145.579 113.131 145.316 113.01C145.053 112.89 144.849 112.674 144.622 112.494C143.691 111.759 142.293 111.681 141.287 112.309C141.144 112.399 141.001 112.51 140.943 112.668C140.885 112.827 140.949 113.04 141.111 113.088C142.396 112.544 143.927 112.62 145.151 113.289C145.328 113.385 145.514 113.514 145.557 113.711C145.601 113.908 145.389 114.144 145.214 114.045C144.415 113.598 143.461 113.434 142.559 113.587C142.138 113.659 141.727 113.797 141.3 113.811C140.874 113.824 140.407 113.682 140.181 113.32C139.972 112.986 140.021 112.536 140.225 112.199C140.429 111.862 140.763 111.623 141.112 111.441C142.534 110.701 144.365 110.826 145.673 111.752ZM103.066 93.6968C100.017 96.2601 96.4337 98.185 92.6134 99.3137L92.3584 99.3877C91.8624 99.5293 91.2383 99.8434 91.3426 100.349L91.4068 100.662C91.5974 101.604 91.759 102.564 91.623 103.513C91.4765 104.535 90.9127 105.559 89.9797 105.989L89.8938 106.026C88.2324 106.71 87.999 109.192 89.0885 110.62C90.1779 112.049 92.0672 112.602 93.8519 112.808C99.0899 113.414 104.556 111.658 108.461 108.115C109.877 106.83 111.144 105.291 112.898 104.528L108.513 102.923C107.33 102.49 106.132 102.049 105.102 101.323C104.072 100.597 103.214 99.5407 103.003 98.2987C102.745 96.7774 103.475 95.1848 103.066 93.6968ZM52.4835 97.8099C52.3735 97.8588 52.2611 97.9238 52.2082 98.032C52.1552 98.1403 52.1731 98.2683 52.1918 98.3874L53.1965 104.72C53.4925 106.587 53.9085 108.655 55.4477 109.751C57.1338 110.952 59.4493 110.481 61.4127 109.796L61.5175 109.759C65.1724 108.461 68.6898 106.654 72.5204 106.046C75.2706 105.609 78.1547 105.796 80.7553 104.801C79.8041 103.365 77.7433 103.372 76.0193 103.561L61.9355 105.161C60.8445 105.285 59.6985 105.43 58.8124 106.079C58.4247 106.363 58.0576 106.752 57.5775 106.772C57.1104 106.792 56.7044 106.111 57.0705 105.861L57.1028 105.841C57.5042 105.62 57.4772 105.044 57.3951 104.593L56.9691 102.258C56.7537 101.099 56.4907 99.9202 55.7976 98.9744C55.049 97.9529 53.6408 97.2957 52.4835 97.8099ZM149.713 107.276C150.053 107.671 150.067 108.278 149.841 108.747C149.614 109.217 149.186 109.562 148.722 109.8C148.163 110.087 147.547 110.237 146.929 110.365L146.62 110.427C146.499 110.452 146.372 110.476 146.255 110.437C146.158 110.404 146.079 110.331 146.015 110.251C145.696 109.852 145.708 109.262 145.923 108.799C146.138 108.336 146.524 107.976 146.921 107.654C147.326 107.325 147.766 107.014 148.274 106.894C148.782 106.773 149.373 106.88 149.713 107.276ZM148.048 107.971L147.885 108.08C147.642 108.246 147.408 108.428 147.245 108.671C147.045 108.968 146.975 109.382 147.173 109.68L148.479 108.954C148.692 108.835 148.912 108.71 149.05 108.509C149.188 108.309 149.216 108.01 149.045 107.836C148.789 107.575 148.352 107.768 148.048 107.971ZM127.21 93.6738C127.301 93.7107 127.362 93.7933 127.416 93.8776L129.329 97.0035C129.671 97.5622 130.45 97.6244 131.103 97.5784C132.355 97.4902 133.595 97.2346 134.78 96.8206C134.979 96.7511 135.168 97.0041 135.125 97.2103C135.082 97.4164 134.905 97.5632 134.739 97.6927L131.864 99.9333C131.511 99.9082 131.612 99.3304 131.898 99.1224L131.983 99.0634C132.258 98.8772 132.593 98.6934 132.576 98.3737L130.915 98.8926C130.597 98.9917 130.245 99.0891 129.943 98.9498C129.743 98.8573 129.602 98.6756 129.475 98.4928L127.365 95.4124L127.328 98.1098C127.325 98.331 127.316 98.571 127.175 98.7419C127.076 98.8633 126.927 98.9284 126.778 98.9833L123.866 100.028C124.643 100.806 126.099 99.9876 127.03 100.574C127.667 100.975 127.776 101.87 127.638 102.61C127.501 103.351 127.186 104.072 127.227 104.824C127.758 104.439 128.148 103.863 128.31 103.227C128.375 102.97 128.407 102.697 128.549 102.474C128.943 101.86 129.882 101.985 130.534 102.314C131.185 102.642 131.861 103.115 132.573 102.959L131.539 101.306C131.445 101.155 131.347 100.992 131.356 100.814C131.364 100.637 131.533 100.457 131.703 100.509C131.778 100.531 131.833 100.59 131.882 100.652L134.188 103.641C133.379 104.175 132.31 103.839 131.375 103.581L131.236 103.545C130.324 103.319 129.21 103.297 128.707 104.07C128.351 104.615 127.935 105.12 127.467 105.571C127.27 105.762 127.045 105.951 126.773 105.983C126.501 106.014 126.188 105.807 126.212 105.534L126.48 102.512C126.497 102.316 126.511 102.103 126.402 101.939C126.287 101.767 126.07 101.7 125.871 101.645L123.351 100.949C122.804 100.798 122.8 99.9455 123.211 99.553C123.621 99.1605 124.227 99.0782 124.774 98.9263C125.322 98.7744 125.914 98.4521 126.013 97.8925L126.652 94.271C126.707 93.9613 126.918 93.5558 127.21 93.6738ZM59.4269 42.6144L58.9616 42.9925C55.8616 45.5188 52.8067 48.1673 50.5331 51.4513C48.1458 54.8995 46.6802 59.1754 47.3909 63.3087C48.4266 69.332 53.8143 74.1289 54.0446 80.2362C54.0752 81.0475 54.9014 81.5524 55.5925 81.9783C58.3201 83.6593 60.3414 86.3272 61.6751 89.2404C62.9672 92.0625 63.657 95.1205 64.1587 98.1853L64.2066 98.4819C64.2813 98.9492 64.3359 99.4812 64.0344 99.846C63.7329 100.211 62.9577 100.083 62.9878 99.6108C63.3416 94.0578 61.3235 88.3928 57.5386 84.3142C56.5553 83.2547 55.4132 82.2726 54.0285 81.8578C53.9403 83.9966 53.2202 86.1762 51.6957 87.6791C50.1713 89.1819 47.7664 89.8685 45.7928 89.0392C43.8193 88.2099 42.612 85.7058 43.5002 83.7581C44.2442 82.1264 46.092 81.3021 47.8513 80.9548C49.5776 80.614 51.367 80.5962 53.0997 80.9027C53.3328 80.9439 53.4344 80.618 53.4297 80.3813C53.3044 74.0332 47.4364 69.0631 46.6662 62.7606C46.2452 59.3162 47.4204 55.849 49.1259 52.8271C51.3656 48.8586 54.5518 45.4285 58.3445 42.9026L58.4438 42.8382C58.7476 42.647 59.1018 42.4838 59.4269 42.6144ZM78.7478 74.947C77.8987 75.4932 77.9205 76.7053 77.8503 77.7124C77.7539 79.094 77.2789 80.4768 76.3525 81.5062C75.4261 82.5357 74.0187 83.1681 72.6446 82.9952C72.2891 82.9505 72.1811 83.4649 72.2277 83.8201C73.0265 89.9087 76.7199 95.8864 82.4606 98.0665C85.9702 99.3993 89.9345 99.2222 93.5127 98.0862C97.0056 96.9772 100.167 95.0048 103.056 92.7471L103.267 92.5814C103.686 92.2505 104.107 91.9057 104.399 91.4582C104.694 91.0044 104.839 90.4675 104.91 89.9307C105.289 87.0548 103.367 84.0456 100.599 83.18C100.273 83.0781 100.348 82.5495 100.634 82.3629C100.92 82.1764 101.288 82.189 101.615 82.0892C102.499 81.819 102.906 80.8116 103.108 79.9091C103.385 78.669 103.463 77.2547 102.695 76.2427C101.656 74.8751 99.6364 74.8768 97.9241 75.0079L95.1456 75.2206C94.1867 75.294 92.9522 75.632 92.9072 76.5927C92.8103 78.6618 91.8989 80.7229 90.2885 82.0258C88.6781 83.3287 86.3591 83.7792 84.4473 82.9816C82.5659 82.1967 81.2368 80.1487 81.4542 78.1266L81.4659 78.0288C81.5791 77.1734 81.5168 76.2446 81.0157 75.5422C80.5146 74.8398 79.4735 74.4802 78.7478 74.947ZM101.697 42.6131C100.458 42.9653 99.2677 43.5334 98.2896 44.3715C96.9227 45.5428 96.0139 47.2353 95.7928 49.0218C95.7144 49.6548 95.8404 50.4711 96.4551 50.6412C97.9568 51.0566 99.3005 52.0199 100.176 53.3088C98.7563 52.4639 97.2 51.8492 95.5861 51.4958L102.407 55.3557C102.803 55.5794 103.213 55.817 103.462 56.1972C103.711 56.5775 103.737 57.1449 103.395 57.4444L102.918 57.0733C101.723 56.1484 100.501 55.2518 99.1638 54.5518C98.1468 54.0195 97.0733 53.6066 95.994 53.2132L95.405 52.9999C93.4069 52.2791 91.3907 51.5537 89.2863 51.2657C87.333 50.9983 85.3276 51.117 83.4195 51.6129L83.0431 51.7093C80.4655 52.3616 77.7778 52.895 75.6467 54.471C74.379 55.4085 73.3862 56.6635 72.4437 57.9274L72.2213 58.229C70.3485 60.8003 68.6372 63.9705 69.7329 66.9206C74.7636 66.301 78.6828 62.4086 83.24 60.1898C83.5883 60.0202 84.1628 59.9683 84.2157 60.3521L79.1162 63.3656C79.2578 64.1437 79.124 64.9692 78.7439 65.6628C82.4696 64.61 85.9529 62.709 88.8551 60.1465L89.0395 59.9821C89.4999 59.5676 90.3869 59.2247 90.583 59.8123L90.3335 59.9516C89.4184 60.4664 88.508 61.0295 87.8772 61.8631C87.189 62.7724 86.915 64.0944 87.525 65.0579L93.9626 61.2675C94.2241 61.1135 94.5093 60.954 94.8111 60.9857C95.1129 61.0174 95.3959 61.3424 95.2655 61.6165L95.0466 61.6621C94.3517 61.8097 93.6471 61.9947 93.106 62.4473C92.508 62.9476 92.1983 63.8855 92.6427 64.5261C93.4398 65.6753 94.0866 66.9285 94.5615 68.2439C94.5719 67.6687 95.3559 67.3745 95.8727 67.6271C96.3896 67.8796 96.6631 68.4496 96.8504 68.9936C97.3862 70.5497 97.5278 72.2397 97.2583 73.8632C98.8772 74.4348 100.776 73.7596 102.333 74.4827C103.778 75.1538 104.485 76.8946 104.385 78.485C104.284 80.0753 103.533 81.5458 102.73 82.9226C104.973 84.6602 106.171 87.6534 105.747 90.4587C106.138 90.3949 106.469 90.0574 106.524 89.665L107.414 90.2263C106.022 91.0127 105.032 92.4721 104.816 94.0556C110.929 88.3355 112.958 79.2696 112.077 70.9446L112.042 70.6341C111.693 67.6278 110.861 64.4941 108.6 62.5028C109.812 61.804 111.367 62.0788 112.664 61.5541C113.889 61.0583 114.731 59.909 115.3 58.7157C117.202 54.7263 116.547 49.6504 113.695 46.2744C110.843 42.8983 105.948 41.4046 101.697 42.6131ZM81.7138 92.645C81.9066 92.6769 82.1254 92.7421 82.2009 92.9223C82.3215 93.2101 81.9836 93.4732 81.6912 93.5822C81.2666 93.7404 80.8209 93.8416 80.3696 93.8825C79.991 93.9167 79.5134 93.8436 79.3963 93.4819C79.3193 93.2441 79.453 92.977 79.6554 92.8303C79.8578 92.6836 80.1138 92.6341 80.3623 92.6072C80.8117 92.5585 81.2678 92.5713 81.7138 92.645ZM74.799 88.5195C76.1293 90.0829 78.2104 90.9108 80.2631 90.927C82.3158 90.9431 84.3297 90.201 86.0339 89.0566L86.1772 88.9603C86.3937 88.8165 86.6182 88.6814 86.8721 88.6372C87.1824 88.5832 87.5512 88.7135 87.6567 89.0102C85.8743 90.5241 83.6399 91.5239 81.3109 91.7352C78.9818 91.9466 76.5695 91.349 74.6691 89.9861C74.3262 89.7402 73.9718 89.4166 73.9577 88.995C73.9435 88.5733 74.5256 88.1982 74.799 88.5195ZM46.9156 81.8975C45.9905 82.1926 45.0596 82.625 44.476 83.401C43.6091 84.5538 43.7607 86.3028 44.697 87.3999C45.6333 88.4971 47.2166 88.935 48.6292 88.6435C50.0417 88.3519 51.2681 87.3988 52.0618 86.1946C52.8556 84.9903 53.2443 83.5526 53.362 82.1151C53.3817 81.8742 53.3379 81.5551 53.1003 81.5109C51.0488 81.1292 48.9035 81.2633 46.9156 81.8975ZM79.6939 76.2805C79.7325 76.612 79.6042 76.9374 79.4863 77.2496C78.8202 79.0142 78.4147 80.8768 78.2871 82.7586C78.2664 83.0634 78.2546 83.3795 78.3664 83.6638C78.4719 83.9324 78.7169 84.166 79.001 84.182L79.0516 84.1825C79.3102 84.1734 79.4329 84.5589 79.2702 84.7601C79.1075 84.9614 78.8023 84.984 78.5543 84.9101C78.0451 84.7585 77.68 84.2845 77.5322 83.7741C77.3845 83.2638 77.4223 82.7189 77.4963 82.1927C77.7471 80.4088 78.3984 78.6792 78.4303 76.8781C78.4393 76.3698 78.5432 75.6847 79.05 75.6442C79.3827 75.6176 79.6553 75.949 79.6939 76.2805ZM86.024 70.26C84.9661 70.4777 84.1584 71.3455 83.6098 72.2759C82.4858 74.1818 82.1656 76.545 82.7418 78.6814C83.0005 79.6406 83.4428 80.5677 84.1367 81.2787C84.8306 81.9898 85.7946 82.4671 86.788 82.4506C87.4813 82.4391 88.1543 82.1931 88.7566 81.8494C90.768 80.7018 92.0459 78.3761 91.936 76.063C91.826 73.7499 90.3334 71.5559 88.2223 70.6042C87.5348 70.2943 86.7626 70.108 86.024 70.26ZM71.4233 69.3117C69.5331 70.0119 68.3129 71.9749 68.0528 73.9738C67.7928 75.9727 68.3535 77.9947 69.1526 79.8453C69.3679 80.3437 69.6125 80.8504 70.0258 81.2024C70.439 81.5545 71.0647 81.7123 71.5342 81.4398C71.7528 81.313 71.957 81.6096 72.1229 81.8002C72.4534 82.1801 73.0347 82.2124 73.5285 82.1138C75.155 81.7888 76.4051 80.3673 76.911 78.7876C77.4001 77.2606 77.2958 75.6077 77.0068 74.0276L76.9762 73.8644C76.6714 72.2708 75.9828 70.4799 74.4312 70.0053C73.6177 69.7565 72.6364 69.9019 72.0076 69.329C71.8557 69.1906 71.6159 69.2403 71.4233 69.3117ZM101.462 76.0685C102.101 76.777 101.839 77.8771 101.52 78.7861L101.494 78.8593C101.366 79.2158 101.233 79.5807 100.988 79.8698C100.744 80.1588 100.359 80.3607 99.9886 80.2835C99.6178 80.2063 99.3288 79.7764 99.4846 79.4312C99.6779 79.0027 100.335 78.9808 100.572 78.5749L99.9314 78.5145C99.4999 78.4737 99.0353 78.4189 98.7156 78.1263C98.396 77.8336 98.3558 77.2141 98.7445 77.0224C99.0139 76.8894 99.3384 77.0197 99.5877 77.1872C99.8371 77.3548 100.076 77.5669 100.373 77.6126C100.67 77.6582 101.031 77.425 100.969 77.1308C100.884 76.7214 101.094 76.2682 101.462 76.0685ZM86.8374 78.8341C86.8881 79.1157 86.9067 79.4145 86.8013 79.6805C86.6959 79.9466 86.4389 80.1692 86.153 80.1573C85.7102 80.1388 85.473 79.6288 85.3957 79.1924C85.3002 78.6533 85.4494 77.9112 85.9955 77.8711C86.4629 77.8368 86.7545 78.3729 86.8374 78.8341ZM73.1942 77.6895C73.4148 78.011 73.3836 78.4405 73.296 78.8203C73.1838 79.3064 72.902 79.8487 72.4057 79.8994C71.9576 79.9452 71.5751 79.5443 71.4285 79.1184C71.2497 78.5986 71.3365 77.9636 71.7423 77.5928C72.1481 77.2221 72.8832 77.2363 73.1942 77.6895ZM73.6073 72.204C73.8053 72.295 73.9449 72.5445 73.8447 72.7381L73.6531 72.7884C72.5626 73.0794 71.4001 73.4843 70.8793 74.4703C70.7545 74.7066 70.6735 74.9673 70.5181 75.1847C70.3626 75.4021 70.1006 75.5748 69.8391 75.5198C69.5411 75.4571 69.3686 75.1141 69.4005 74.8112C69.4323 74.5083 69.6166 74.2443 69.814 74.0124C70.6167 73.0692 71.7479 72.4112 72.9646 72.1798C73.1787 72.139 73.4092 72.1129 73.6073 72.204ZM87.5442 72.7485C87.8703 73.0113 88.1181 73.3614 88.4476 73.6199C88.726 73.8382 89.0777 74.0109 89.2042 74.3413C89.3308 74.6717 88.9502 75.1384 88.6741 74.9171C87.9532 74.3395 87.153 73.8609 86.3031 73.4992C85.9177 73.3352 86.0052 72.6868 86.3811 72.5022C86.7569 72.3176 87.2181 72.4858 87.5442 72.7485ZM83.5054 70.6764C82.7949 70.9106 82.29 71.6583 82.3382 72.4049C82.6099 72.2658 82.817 72.0059 82.8918 71.71L82.8811 71.6801C83.1965 71.4309 83.4213 71.0695 83.5054 70.6764Z" fill="#00160A"/>
<path fill-rule="evenodd" clip-rule="evenodd" d="M43.4694 160.152C43.7552 160.155 44.0181 160.287 44.2679 160.433L44.4028 160.513C45.9336 161.43 47.5489 162.205 49.2216 162.826C49.4514 162.911 49.38 163.297 49.156 163.396C48.9319 163.496 48.6734 163.407 48.4449 163.318L43.5052 161.396C43.1891 161.273 42.8222 161.086 42.7944 160.748C42.7668 160.411 43.1316 160.149 43.4694 160.152Z" fill="#E7EAEE"/>
<path fill-rule="evenodd" clip-rule="evenodd" d="M35.5947 154.77L50.8757 160.191L50.9717 160.227C51.3756 160.385 51.8124 160.655 51.7693 161.072C51.7341 161.412 51.358 161.631 51.0166 161.619C50.7277 161.61 50.4608 161.481 50.2055 161.34L50.0673 161.262C47.9367 160.054 45.7012 159.057 43.4086 158.196C40.8115 157.22 38.141 156.418 35.4663 155.68C35.0572 155.567 34.5389 155.202 34.7734 154.848C34.938 154.6 35.3143 154.671 35.5947 154.77Z" fill="#E7EAEE"/>
</svg>
