<svg width="168" height="168" viewBox="0 0 168 168" fill="none" xmlns="http://www.w3.org/2000/svg">
<rect width="168" height="168" fill="white"/>
<path fill-rule="evenodd" clip-rule="evenodd" d="M122.678 103.682C120.235 104.637 117.409 106.071 117.146 108.681C120.465 106.128 124.565 104.604 128.746 104.37C125.858 108.009 122.21 111.043 118.106 113.221C114.421 115.177 109.755 117.263 109.439 121.423C113.397 116.71 119.483 113.856 125.637 113.828C121.7 119.595 115.386 123.686 108.513 124.922C108.748 126.695 116.369 130.491 118.589 131.221C120.169 138.012 120.854 146.819 122.435 153.61C122.824 155.281 123.166 157.201 122.143 158.579C121.128 159.945 119.211 160.18 117.513 160.301C110.821 160.776 101.665 161.252 94.9736 161.728C94.1724 158.098 93.3712 154.468 92.57 150.839C81.2826 151.887 32.8925 162.975 24.0122 157.158C-10.2685 134.701 33.4454 127.051 34.3849 99.7101C34.6003 93.4412 15.7515 82.4825 16.0507 76.0766C16.2462 71.8937 16.8937 67.8076 18.9633 64.2159C21.0328 60.6242 24.3122 57.8574 27.8766 55.741C22.9693 54.4796 19.2523 49.588 19.3518 44.5223C19.4512 39.4565 23.3574 34.7145 28.3103 33.6467C25.9751 30.8639 22.298 29.5884 19.6121 27.1424C16.4833 24.2929 14.911 19.6963 16.0507 15.6208C17.1905 11.5452 21.2033 8.33859 25.4313 8.51927C28.9043 8.66769 31.9606 10.8643 34.3849 13.3556C38.1446 17.2194 40.9408 22.0137 42.4525 27.1886C43.4601 30.6378 47.153 32.3925 50.2717 34.1775C53.3903 35.9625 56.629 39.0718 55.7503 42.5561C54.5887 37.7882 71.8542 43.4673 87.5127 44.8575C89.5917 45.0421 91.8292 45.3108 93.366 46.7231C95.5745 48.7526 98.8904 49.4928 101.752 48.5952C102.663 50.8525 103.333 53.3879 102.559 55.6955C101.785 58.0032 99.043 59.7645 96.8513 58.7059C97.4234 61.6492 97.9955 64.5924 98.5676 67.5356C104.171 67.603 109.774 67.7174 115.376 67.8788C118.345 67.9644 121.448 68.0995 124.028 69.5704C126.609 71.0413 130.062 68.9575 132.612 63.6037C130.962 72.3396 132.917 75.8303 136.289 76.7794C136.296 76.7132 136.558 76.7447 136.565 76.6788C137.569 68.0459 143.427 60.3807 151.58 57.3484C150.859 59.0097 145.7 62.2911 142.118 66.4813C138.62 70.5745 136.945 76.0543 136.772 77.0383C142.327 75.5815 144.179 79.7205 153.605 76.0766C149.298 81.2548 140.998 82.5298 135.335 78.8832C132.664 81.8626 132.813 85.1617 130.921 88.6877C134.135 84.6922 138.404 88.2345 135.018 90.8241C136.815 90.9967 138.759 91.2335 140.062 92.4828C141.366 93.732 141.399 96.3615 139.717 97.0191C134.037 99.24 128.358 101.461 122.678 103.682Z" fill="#20CFB1"/>
<path fill-rule="evenodd" clip-rule="evenodd" d="M113.459 83.9931C113.665 83.6023 113.888 83.1923 114.266 82.9646C114.645 82.7368 115.225 82.7839 115.429 83.1757C115.645 83.5927 115.323 84.0954 114.944 84.3737C114.565 84.6521 114.1 84.8483 113.854 85.2487C115.184 86.1251 116.514 87.0014 117.843 87.8777C118.885 88.5641 120.064 89.5444 119.85 90.7735C119.725 91.4941 119.115 92.0543 118.434 92.3231C117.754 92.592 117.006 92.6201 116.275 92.6411C111.362 92.7826 106.443 92.7577 101.532 92.5664C101.191 92.5531 100.811 92.5214 100.584 92.2669C100.408 92.0697 100.371 91.7885 100.343 91.5258C100.06 88.9114 99.7776 86.2971 99.4949 83.6827C99.4845 83.5861 99.4745 83.4853 99.5091 83.3945C99.6546 83.0128 100.226 83.248 100.545 83.5028C102.806 85.3075 106.421 85.0955 108.455 83.0388C108.947 82.5418 109.784 82.606 110.415 82.9057C111.047 83.2053 111.575 83.6928 112.209 83.9881C112.141 83.6218 112.464 83.2352 112.837 83.2367C113.209 83.2382 113.529 83.6273 113.459 83.9931Z" fill="white"/>
<path fill-rule="evenodd" clip-rule="evenodd" d="M34.3342 55.1387C34.3342 55.1387 33.7854 48.5643 35.1669 46.4509C36.5485 44.3375 41.811 43.7012 41.811 43.7012C41.811 43.7012 56.2346 43.5127 64.0276 43.8106C71.8207 44.1085 87.4064 45.4441 87.4064 45.4441C87.4064 45.4441 89.4316 45.8859 90.342 46.4509C91.2524 47.0159 92.5222 48.6193 92.5222 48.6193C92.5222 48.6193 95.2855 49.0221 96.66 49.0769C98.0346 49.1317 99.2941 48.8891 99.2941 48.8891C99.2941 48.8891 101.046 53.9982 99.8074 56.4334C98.5689 58.8686 94.4107 58.4909 94.4107 58.4909L95.8827 67.6045C95.8827 67.6045 94.1326 68.4316 93.1762 69.4686C92.2198 70.5056 91.8357 71.9925 91.8357 71.9925L94.6783 99.7102C94.6783 99.7102 95.5146 101.151 97.3108 101.698C99.1071 102.245 103.154 102.292 103.154 102.292C103.154 102.292 103.01 105.087 103.154 106.29C103.298 107.492 103.427 108.151 103.427 108.151L106.474 129.964C106.474 129.964 103.513 130.503 100.582 131.214C97.6517 131.925 91.8357 133.515 91.8357 133.515C91.8357 133.515 89.7855 134.45 89.5199 135.959C89.2544 137.468 90.342 142.004 90.342 142.004L57.6922 144.492C57.6922 144.492 54.515 144.552 53.4222 143.864C52.3293 143.175 52.0298 140.925 52.0298 140.925L47.6136 101.205C47.6136 101.205 40.5566 101.378 38.4955 100.201C36.4344 99.024 36.1852 94.6797 36.1852 94.6797C36.1852 94.6797 36.5276 92.2173 36.1852 90.5084C36.0709 89.9382 34.5783 83.7573 34.0769 77.8761C33.7932 74.5482 37.7091 71.9925 37.7091 71.9925L34.3342 55.1387Z" fill="white"/>
<path fill-rule="evenodd" clip-rule="evenodd" d="M57.3723 45.9948C57.1183 46.3527 57.3309 46.8866 57.6978 47.1274C58.0647 47.3681 58.5269 47.3953 58.9653 47.415C63.7284 47.6293 68.4914 47.8437 73.2545 48.058C73.7186 48.0789 74.2326 48.0835 74.5842 47.7799C74.9358 47.4763 74.8894 46.7522 74.4306 46.6792C69.1341 45.8371 63.7595 45.4874 58.3986 45.6361C58.0222 45.6465 57.5902 45.6877 57.3723 45.9948" fill="#E7EAEE"/>
<path fill-rule="evenodd" clip-rule="evenodd" d="M78.5638 80.1339L77.326 74.3253C77.326 74.3253 77.2681 75.5231 76.6128 76.0103C75.9575 76.4975 74.6618 76.3059 74.6618 76.3059C74.6618 76.3059 74.4566 72.2498 75.3687 71.0146C76.2807 69.7795 77.1792 70.946 78.9115 70.5509C80.6424 70.1561 80.2839 68.856 82.2951 69.435C84.3063 70.014 85.7924 74.3184 85.7924 74.3184C85.7924 74.3184 84.2155 74.8468 83.5445 74.7113C82.8735 74.5757 83.0371 73.7618 83.0371 73.7618C83.0371 73.7618 82.5615 73.5594 82.6827 74.9865C82.7416 75.6797 83.2664 76.7224 83.5445 78.0862C83.648 78.5941 83.5445 79.7354 83.5445 79.7354C83.5445 79.7354 81.7548 79.918 80.2083 80.249C78.6617 80.58 78.5638 80.1339 78.5638 80.1339Z" fill="#E7EAEE"/>
<path fill-rule="evenodd" clip-rule="evenodd" d="M34.6203 65.6855C34.0246 65.3647 33.5402 64.8755 33.0654 64.3935C31.8406 63.1503 30.6005 61.8869 29.7507 60.3626C29.6698 60.2175 29.5902 60.0508 29.6369 59.8914C29.6836 59.7319 29.9271 59.6413 30.0181 59.7803C31.4953 62.0354 33.3606 64.0354 35.5075 65.6659C35.3144 65.9255 34.9052 65.8388 34.6203 65.6855Z" fill="#00160A"/>
<path fill-rule="evenodd" clip-rule="evenodd" d="M36.4047 37.1439C36.7566 36.7813 36.9443 36.2935 37.1064 35.815C37.6117 34.3226 37.956 32.7759 38.1315 31.2101C38.1631 30.9281 38.2149 30.6033 38.4596 30.4596C38.7347 31.8022 38.3939 33.1857 38.055 34.5136C37.757 35.681 37.4271 36.9068 36.582 37.7656C36.4965 37.8524 36.3874 37.941 36.2671 37.9209C36.1051 37.8938 36.0401 37.6783 36.0979 37.5245C36.1558 37.3707 36.2903 37.2618 36.4047 37.1439L36.4047 37.1439Z" fill="#00160A"/>
<path fill-rule="evenodd" clip-rule="evenodd" d="M121.346 48.8538C121.513 48.809 121.684 48.9411 121.757 49.0983C121.83 49.2555 121.835 49.4343 121.868 49.6045C121.995 50.27 122.595 50.816 123.269 50.8801C123.353 51.0756 123.167 51.2712 123.02 51.425C122.685 51.7751 122.474 52.2409 122.431 52.7233C122.403 53.0362 122.338 53.4718 122.023 53.4677C121.771 53.4644 121.66 53.159 121.569 52.9234C121.347 52.3479 120.846 51.8877 120.253 51.7152C120.129 51.679 120.077 51.52 120.111 51.3951C120.145 51.2702 120.24 51.1726 120.33 51.0798C120.719 50.6806 121.114 50.2079 121.11 49.6504C121.108 49.3489 121.054 48.9317 121.346 48.8538Z" fill="#D2EF05"/>
<path fill-rule="evenodd" clip-rule="evenodd" d="M133.141 101.226C132.619 101.763 132.434 102.603 132.682 103.31C132.407 103.433 132.201 103.054 132.065 102.784C131.86 102.38 131.474 102.073 131.034 101.965C131.671 101.563 132.067 100.808 132.035 100.055C132.291 99.8885 132.578 100.236 132.651 100.533C132.725 100.829 132.836 101.215 133.141 101.226Z" fill="#E7EAEE"/>
<path fill-rule="evenodd" clip-rule="evenodd" d="M128.682 102.233C128.985 102.713 129.416 103.113 129.918 103.379C130.098 103.474 129.935 103.74 129.786 103.879C129.41 104.23 129.172 104.725 129.133 105.238C128.804 104.908 128.476 104.579 128.147 104.25C128.016 104.119 127.878 103.915 127.991 103.768C128.335 103.318 128.574 102.788 128.682 102.233Z" fill="#E7EAEE"/>
<path fill-rule="evenodd" clip-rule="evenodd" d="M106.741 44.339C107.04 42.4354 107.763 40.5646 109.032 39.1149C110.302 37.6652 112.155 36.6756 114.081 36.6771C116.008 36.6787 117.954 37.77 118.755 39.5226C119.169 40.4295 119.271 41.4503 119.243 42.447C119.189 44.3424 118.68 46.2234 117.77 47.8871C116.95 49.3873 115.771 50.7368 114.24 51.4978C112.708 52.2589 110.8 52.3612 109.312 51.5198C108.133 50.8535 107.308 49.6578 106.916 48.3622C106.523 47.0666 106.531 45.6764 106.741 44.339M118.519 42.8985C118.553 41.7182 118.359 40.4994 117.738 39.4949C117.361 38.8842 116.832 38.3677 116.213 38.0046C114.216 36.8334 111.498 37.4626 109.839 39.0776C108.181 40.6926 107.462 43.0795 107.388 45.3933C107.348 46.6276 107.481 47.8931 108.005 49.011C108.53 50.1288 109.49 51.0849 110.686 51.392C112.251 51.7939 113.903 51.0372 115.13 49.9861C117.177 48.2323 118.439 45.5933 118.519 42.8985Z" fill="#D2EF05"/>
<path fill-rule="evenodd" clip-rule="evenodd" d="M126.459 43.0172C126.141 43.4338 125.807 43.981 126.052 44.4449C126.14 44.6109 125.913 44.8041 125.733 44.7517C125.553 44.6993 125.45 44.509 125.403 44.3276C125.355 44.1462 125.339 43.9516 125.243 43.7905C125.146 43.6295 124.928 43.5175 124.769 43.6168C124.542 43.5899 124.519 43.2485 124.65 43.0622C124.782 42.8758 124.999 42.7477 125.08 42.5343C125.144 42.3654 125.109 42.1759 125.14 41.9977C125.17 41.8196 125.322 41.6295 125.496 41.6749C125.49 41.988 125.527 42.3128 125.686 42.5826C125.844 42.8525 126.149 43.0544 126.459 43.0172Z" fill="#D2EF05"/>
<path fill-rule="evenodd" clip-rule="evenodd" d="M97.9563 42.4004C98.2054 42.1108 98.5183 41.8629 98.8855 41.7574C99.2527 41.6519 99.6786 41.7075 99.9654 41.96C100.277 42.2347 100.375 42.6937 100.309 43.104C100.242 43.5144 100.035 43.8872 99.8177 44.2413C99.5352 44.7008 99.2284 45.1453 98.8989 45.5724C98.796 45.7058 98.6831 45.8434 98.5255 45.9028C98.3173 45.9813 98.0853 45.9049 97.88 45.8191C97.1585 45.5176 96.4881 45.0946 95.9053 44.5733C95.3717 44.0959 94.8795 43.3963 95.0958 42.7137C95.2335 42.2788 95.6542 41.9643 96.1054 41.8971C96.5566 41.83 97.0241 41.989 97.3829 42.2707C97.5546 42.4055 97.814 42.5659 97.9563 42.4004M95.6773 42.6531C95.3366 43.1218 95.7064 43.7784 96.1357 44.1676C96.6713 44.6531 97.3073 45.0119 97.9374 45.3664C98.0184 45.412 98.1088 45.4592 98.1997 45.4396C98.2806 45.4221 98.3406 45.3558 98.394 45.2925C98.8208 44.7868 99.2031 44.2435 99.5351 43.6711C99.7905 43.2307 99.9779 42.5837 99.5665 42.2839C99.241 42.0468 98.7665 42.2379 98.4905 42.5312C98.2145 42.8245 98.0409 43.2075 97.7393 43.4744C97.5037 43.1032 97.2533 42.7175 96.8715 42.4997C96.4896 42.2819 95.9358 42.2975 95.6773 42.6531H95.6773Z" fill="#D2EF05"/>
<path fill-rule="evenodd" clip-rule="evenodd" d="M93.0765 29.591C93.8576 28.9821 94.7261 28.4853 95.647 28.1206C96.2115 27.8971 96.8557 27.725 97.4137 27.9644C98.3078 28.348 98.4819 29.6319 98.0115 30.4834C97.5411 31.335 96.6489 31.8512 95.7996 32.3256C94.134 33.256 92.4683 34.1863 90.8027 35.1167C91.1308 34.462 90.7606 33.6935 90.4575 33.0269C89.775 31.5257 89.4177 29.8775 89.4175 28.2283C89.4174 27.7074 89.4564 27.1708 89.6849 26.7026C89.9134 26.2344 90.3695 25.8462 90.8903 25.8339C91.7237 25.8143 92.2778 26.6822 92.559 27.467C92.8052 28.1543 92.979 28.8675 93.0765 29.591ZM96.6067 28.3975C95.2596 28.6712 94.0044 29.3799 93.0743 30.392C92.9827 30.4917 92.8047 30.4478 92.721 30.3413C92.6374 30.2349 92.6213 30.0921 92.6054 29.9577C92.5004 29.0673 92.2676 28.1922 91.9163 27.3674C91.7204 26.9076 91.3924 26.3998 90.8927 26.3917C90.5223 26.3857 90.2001 26.6823 90.0635 27.0266C89.9269 27.3709 89.9384 27.7542 89.9646 28.1237C90.1107 30.1844 90.6529 32.2163 91.5528 34.0759C93.0263 33.2502 94.4998 32.4245 95.9732 31.5988C96.433 31.3412 96.9009 31.0771 97.2584 30.6899C97.6158 30.3027 97.8509 29.7646 97.7471 29.2479C97.6433 28.7312 97.1231 28.2925 96.6067 28.3975Z" fill="#D2EF05"/>
<path fill-rule="evenodd" clip-rule="evenodd" d="M82.7664 131.66C87.067 131.17 91.3954 130.923 95.7239 130.921C96.5179 130.921 97.2087 130.304 97.5313 129.578C97.8539 128.853 97.8797 128.034 97.8801 127.24C97.8816 124.29 97.6042 121.348 97.327 118.411C97.2146 117.22 97.1023 116.029 96.9899 114.838C96.9217 114.115 96.8493 113.376 96.5449 112.717C96.0168 111.573 94.8474 110.829 93.629 110.509C92.4106 110.189 91.1301 110.233 89.8712 110.279C85.6913 110.432 81.5114 110.585 77.3315 110.738C79.741 109.854 82.3652 109.813 84.9314 109.781C86.8988 109.757 88.8662 109.733 90.8336 109.709C92.8446 109.685 95.1424 109.786 96.4252 111.335C97.2539 112.335 97.4368 113.705 97.5754 114.997C98.0115 119.065 98.331 123.144 98.5333 127.23C98.6004 128.584 98.5462 130.175 97.4436 130.964C96.8271 131.406 96.0271 131.472 95.2708 131.523C90.6644 131.835 86.0581 132.147 81.4518 132.459C80.3702 132.532 79.2304 132.595 78.2575 132.117C77.9195 131.951 77.5722 131.575 77.7538 131.245C79.2512 132.061 81.0723 131.853 82.7664 131.66Z" fill="#00160A"/>
<path fill-rule="evenodd" clip-rule="evenodd" d="M64.5489 66.4124C64.6351 66.5414 64.6548 66.7022 64.6721 66.8563C64.7124 67.2153 64.7527 67.5743 64.7931 67.9333C64.8409 68.3592 64.8507 68.8744 64.4977 69.1174C64.3094 69.2469 64.0667 69.2575 63.8383 69.2637C59.0332 69.3935 54.2282 69.5234 49.4231 69.6532C49.114 69.6615 48.7562 69.6482 48.5667 69.4038C48.4478 69.2504 48.4295 69.0441 48.4183 68.8503C48.3833 68.2417 48.3736 67.6315 48.3891 67.022C48.3915 66.9293 48.3969 66.8294 48.4545 66.7566C48.5235 66.6693 48.6451 66.648 48.7554 66.633C53.7203 65.9605 58.752 65.7829 63.7519 66.1038C64.0471 66.1227 64.3844 66.1666 64.5489 66.4124M64.3515 68.7477C63.8635 68.4841 64.3551 67.7114 64.1777 67.1859C64.0253 66.7345 63.4459 66.6277 62.9702 66.6006C58.4395 66.3426 53.8851 66.5035 49.3839 67.0806C49.2181 67.1018 49.0343 67.1338 48.9336 67.2672C48.8341 67.399 48.8521 67.582 48.8747 67.7456C48.9098 67.9988 48.9448 68.252 48.9799 68.5052C49.0075 68.7047 49.0496 68.9285 49.2173 69.0402C49.3388 69.1212 49.4953 69.1204 49.6413 69.1167C54.5447 68.9937 59.4481 68.8707 64.3515 68.7477Z" fill="#00160A"/>
<path fill-rule="evenodd" clip-rule="evenodd" d="M73.5881 74.9193C73.611 74.386 73.6338 73.8527 73.6567 73.3194C73.7013 72.2794 73.7559 71.2007 74.2392 70.2788C74.7225 69.3569 75.7659 68.6405 76.7788 68.8801C77.4125 69.0299 77.9967 69.528 78.634 69.3943C79.1889 69.2779 79.5293 68.7293 79.9981 68.4103C81.1155 67.65 82.6731 68.3563 83.5972 69.3426C84.5932 70.4056 85.2406 71.79 85.4179 73.2358C85.433 73.3586 85.4405 73.4964 85.3616 73.5915C85.2962 73.6703 85.189 73.6976 85.0892 73.7204C84.7045 73.8085 84.3198 73.8967 83.9351 73.9848C83.6076 74.0598 83.2677 74.1351 82.9386 74.067C82.6095 73.9989 82.2935 73.7451 82.267 73.4101C82.1687 75.2823 83.5707 77.0708 83.1801 78.9044C83.0348 78.825 82.8896 78.7457 82.7443 78.6663C83.0871 76.8274 81.4483 75.0474 81.7905 73.2085C81.8358 72.9651 81.9334 72.706 82.151 72.5879C82.3686 72.4699 82.7126 72.6041 82.7041 72.8514C82.6904 73.2478 83.1182 73.5439 83.5148 73.5405C83.9113 73.5371 84.272 73.3245 84.6108 73.1184C84.7315 73.0449 84.6984 72.8634 84.6481 72.7314C84.2732 71.7478 83.7803 70.8092 83.1833 69.9422C82.7798 69.3562 82.2936 68.7769 81.6231 68.539C80.9526 68.301 80.0671 68.5438 79.8203 69.2111C79.5314 69.9922 78.4397 70.0449 77.638 69.8196C76.8362 69.5944 75.9364 69.2428 75.2211 69.6692C74.623 70.0258 74.4227 70.7855 74.3107 71.4728C74.1184 72.6519 74.0297 73.8478 74.0458 75.0423C74.0783 75.2247 74.3107 75.2835 74.4958 75.2787C75.471 75.2534 76.3765 74.4842 76.5592 73.5259C76.822 73.8281 76.9158 74.2376 77.0008 74.629C77.2952 75.9844 77.5896 77.3398 77.8839 78.6952C77.9745 79.1125 77.8687 79.7537 77.4486 79.6778C77.2582 78.1996 76.9762 76.7331 76.6047 75.2897C75.9023 75.4493 75.1999 75.609 74.4975 75.7687C74.2821 75.8177 74.0409 75.863 73.8523 75.7478C73.5921 75.5888 73.575 75.224 73.5881 74.9193Z" fill="#00160A"/>
<path fill-rule="evenodd" clip-rule="evenodd" d="M94.1354 111.732C94.4938 112.12 93.9369 112.837 94.2652 113.251C94.4356 113.466 94.3141 113.807 94.0884 113.963C93.8627 114.118 93.5736 114.139 93.2999 114.155C88.5944 114.429 83.8888 114.702 79.1833 114.975C78.8634 114.994 78.4813 114.983 78.3064 114.715C78.23 114.597 78.2116 114.453 78.1951 114.314C78.1521 113.952 78.1092 113.591 78.0662 113.229C78.0527 113.116 78.0406 112.994 78.094 112.893C78.182 112.726 78.4006 112.69 78.5884 112.674C83.5336 112.237 88.4849 111.868 93.4403 111.567C93.6865 111.552 93.9682 111.55 94.1354 111.732ZM93.5953 112.343C93.58 112.253 93.5599 112.156 93.4886 112.1C93.4174 112.044 93.3181 112.048 93.2281 112.055C88.8404 112.375 84.4527 112.695 80.065 113.014C79.7103 113.04 79.3425 113.07 79.0327 113.245C78.723 113.419 78.4894 113.783 78.5824 114.127C78.6112 114.233 78.6726 114.334 78.7667 114.391C78.8822 114.461 79.0265 114.456 79.1613 114.449C83.7938 114.197 88.4262 113.946 93.0586 113.695C93.6093 113.665 93.6885 112.886 93.5953 112.343Z" fill="#00160A"/>
<path fill-rule="evenodd" clip-rule="evenodd" d="M97.8481 107.518C98.681 109.71 98.9466 112.069 99.2053 114.4C99.8064 119.813 100.408 125.227 101.009 130.641C100.561 130.678 100.355 130.103 100.3 129.658C99.3889 122.374 99.0958 114.996 97.5557 107.818C97.6531 107.718 97.7506 107.618 97.8481 107.518Z" fill="#00160A"/>
<path fill-rule="evenodd" clip-rule="evenodd" d="M70.9816 69.8069C70.8521 69.7515 70.8546 69.5493 70.954 69.4494C71.0534 69.3496 71.2038 69.3255 71.3436 69.3077C72.39 69.1748 73.445 69.11 74.4997 69.1139C74.4436 69.564 73.8626 69.6955 73.4096 69.7164C72.6485 69.7516 71.8874 69.7868 71.1263 69.8219C71.0774 69.8242 71.0266 69.8261 70.9816 69.8069L70.9816 69.8069Z" fill="#00160A"/>
<path fill-rule="evenodd" clip-rule="evenodd" d="M76.8848 124.862C76.7979 123.251 76.7109 121.639 76.624 120.028C76.3901 115.691 76.1488 111.31 74.9416 107.138C74.7874 106.605 74.6113 106.064 74.2699 105.627C73.415 104.533 71.8326 104.408 70.4445 104.408C65.0922 104.408 59.7402 104.917 54.4838 105.926C53.9497 106.028 53.3944 106.146 52.9682 106.484C52.291 107.02 52.1125 107.964 52.0496 108.826C51.9348 110.4 52.0485 111.99 52.386 113.531C52.1928 113.499 51.9997 113.466 51.8065 113.434C51.0982 111.959 50.7756 110.301 50.879 108.668C50.9239 107.959 51.0544 107.236 51.4198 106.627C52.3286 105.111 54.3292 104.748 56.0866 104.559C60.5452 104.082 65.0206 103.76 69.5017 103.595C71.3055 103.529 73.3436 103.579 74.5815 104.893C75.2041 105.554 75.5195 106.442 75.767 107.315C76.6269 110.35 76.8642 113.52 77.0971 116.666C77.3247 119.739 77.5523 122.812 77.7799 125.885C77.8334 126.608 77.8862 127.341 77.7401 128.051C77.2639 130.362 74.8022 131.768 72.4587 132.048C70.1153 132.327 67.756 131.792 65.3962 131.753C62.2228 131.7 59.0307 132.544 55.9009 132.016C54.9995 131.865 54.041 131.545 53.5455 130.777C53.2017 130.244 53.1397 129.584 53.0871 128.952C52.7159 124.494 52.3447 120.037 51.9735 115.579C51.9487 115.281 52.1706 114.836 52.3999 115.029C52.8092 119.322 53.2184 123.616 53.6277 127.909C53.6831 128.491 53.7432 129.088 54.0134 129.606C54.4056 130.357 55.197 130.835 56.0174 131.048C56.8379 131.261 57.6978 131.243 58.5453 131.232C62.131 131.185 65.7184 131.275 69.2973 131.5C70.4941 131.575 71.7038 131.665 72.8861 131.464C74.0684 131.263 75.2415 130.737 75.9754 129.788C77.0206 128.437 76.9768 126.568 76.8848 124.862Z" fill="#00160A"/>
<path fill-rule="evenodd" clip-rule="evenodd" d="M70.8 68.0644C71.1337 67.8039 70.8531 67.2706 70.9189 66.8525C71.012 66.261 71.748 66.0578 72.3428 65.9891C76.1633 65.5476 80.0106 65.3388 83.8564 65.3642C84.1764 65.3663 84.5546 65.402 84.7158 65.6785C84.9093 66.0105 84.729 66.5898 85.0953 66.7061C85.2672 66.7607 85.4877 66.6597 85.618 66.7845C85.8335 66.9908 85.4321 67.2695 85.135 67.2961C80.6345 67.7001 76.1242 67.9956 71.6094 68.1825C71.3332 68.1939 71.0403 68.2012 70.8 68.0644M84.2436 66.2006C84.1385 65.9363 83.7866 65.8975 83.5023 65.9018C79.8764 65.957 76.2524 66.1362 72.6388 66.4391C72.2151 66.4746 71.7151 66.563 71.5385 66.9497C71.4536 67.1696 71.6154 67.4225 71.829 67.5223C72.0425 67.6221 72.2893 67.6092 72.5245 67.5943C76.1343 67.3653 79.7441 67.1363 83.3539 66.9073C83.576 66.8932 83.8076 66.8763 83.9991 66.7629C84.1907 66.6494 84.3259 66.4074 84.2436 66.2006Z" fill="#00160A"/>
<path fill-rule="evenodd" clip-rule="evenodd" d="M89.1091 119.171C89.6659 119.613 89.4278 120.582 89.9121 121.103C90.1372 121.345 90.4745 121.44 90.7917 121.532C90.9956 121.592 91.2481 121.742 91.1832 121.944C91.1168 122.151 90.8149 122.118 90.6123 122.039C89.9507 121.779 89.2047 121.349 89.1682 120.639C89.1415 120.121 88.9876 119.61 88.7238 119.164C88.798 119.038 88.9948 119.08 89.1091 119.171V119.171Z" fill="#00160A"/>
<path fill-rule="evenodd" clip-rule="evenodd" d="M91.7418 126.509C91.5605 124.174 91.3792 121.838 91.1979 119.503C91.1712 119.16 91.1408 118.804 90.9709 118.505C90.8009 118.206 90.4488 117.98 90.1163 118.069C88.6121 118.473 87.0499 118.66 85.4929 118.623C84.1315 118.591 82.7386 118.392 81.4287 118.765C81.4531 119.413 81.4775 120.062 81.5018 120.71C81.5089 120.9 81.5197 121.101 81.6274 121.256C81.9295 121.694 82.6793 121.36 82.8497 120.857C83.02 120.354 82.8662 119.804 82.8954 119.273C82.9006 119.179 82.9194 119.072 82.9994 119.023C83.1693 118.917 83.3325 119.169 83.3761 119.364C83.501 119.924 83.6257 120.51 83.4783 121.064C83.3309 121.618 82.8168 122.12 82.2482 122.047C81.6589 121.971 81.4178 122.776 81.4035 123.37C81.3751 124.556 81.3466 125.741 81.3182 126.926C81.3092 127.299 81.4434 127.815 81.8143 127.773C82.7716 127.664 83.7289 127.556 84.6862 127.447C84.9175 127.421 85.1663 127.398 85.3698 127.511C85.5733 127.624 85.6809 127.932 85.5142 128.095C84.3898 128.193 83.2654 128.292 82.141 128.39C81.8126 128.419 81.4718 128.447 81.162 128.334C80.8522 128.221 80.5824 127.927 80.6105 127.598C80.8871 124.374 80.949 121.131 80.7957 117.898C80.7631 117.21 81.6008 116.861 82.2776 116.734C84.4255 116.331 86.6162 116.157 88.8009 116.214C89.5333 116.233 90.3317 116.306 90.8628 116.81C91.4036 117.324 91.5097 118.134 91.5843 118.876C91.8637 121.658 92.1432 124.439 92.4226 127.221C92.4377 127.371 92.4413 127.549 92.3213 127.641C92.2497 127.695 92.1536 127.701 92.0637 127.705C91.1314 127.744 90.199 127.782 89.2667 127.821C88.7726 127.842 88.241 127.852 87.8297 127.578C87.5477 127.39 87.3612 127.091 87.1973 126.794C86.8043 126.082 86.4902 125.326 86.2627 124.545C85.9061 125.438 85.6803 126.383 85.5948 127.34C85.1442 127.389 85.0604 126.713 85.1652 126.272C85.3814 125.362 85.5975 124.452 85.8137 123.542C85.8466 123.404 85.8991 123.243 86.0349 123.201C86.2347 123.138 86.3881 123.377 86.4612 123.573C86.7657 124.392 87.0702 125.21 87.3747 126.028C87.6368 126.733 88.3927 127.156 89.1391 127.243C89.8856 127.329 90.6336 127.141 91.3616 126.955C91.5056 126.918 91.6691 126.865 91.725 126.727C91.7528 126.659 91.7476 126.582 91.7418 126.509ZM81.5987 117.959C82.2739 117.968 82.949 117.976 83.6242 117.985C84.1314 117.992 84.6388 117.998 85.1461 117.989C86.9772 117.954 88.8042 117.709 90.5794 117.258C90.1834 116.852 89.5481 116.829 88.9808 116.839C86.9502 116.875 84.921 116.994 82.8999 117.193C82.359 117.246 81.6869 117.423 81.5987 117.959L81.5987 117.959Z" fill="#00160A"/>
<path fill-rule="evenodd" clip-rule="evenodd" d="M78.5765 116.21C78.5379 115.999 78.8118 115.884 79.0238 115.851C81.4734 115.471 83.9557 115.303 86.4341 115.35C86.4697 115.351 86.5062 115.352 86.5391 115.365C86.6554 115.414 86.6499 115.597 86.5576 115.683C86.4653 115.768 86.3293 115.783 86.2037 115.792C83.8437 115.969 81.4491 115.878 79.137 116.383C78.9223 116.43 78.6161 116.426 78.5765 116.21L78.5765 116.21Z" fill="#00160A"/>
<path fill-rule="evenodd" clip-rule="evenodd" d="M133.357 111.139C133.492 110.819 133.641 110.483 133.929 110.289C134.171 110.125 134.474 110.089 134.765 110.057C135.627 109.964 136.49 109.87 137.352 109.776C137.779 109.73 138.329 109.55 138.313 109.122C138.261 107.737 138.368 106.142 139.468 105.3C140.474 104.529 141.98 104.74 143.013 105.476C144.045 106.211 144.699 107.356 145.263 108.491C145.513 108.994 146.197 109.086 146.75 108.989C147.303 108.892 147.863 108.674 148.409 108.807C149.249 109.011 149.673 109.928 149.962 110.743C151.41 114.831 152.393 119.092 154.195 123.037C154.868 124.513 154.655 126.354 153.662 127.637C153.539 126.618 153.71 125.566 154.148 124.639C154.355 124.202 153.667 123.915 153.184 123.916C148.259 123.928 143.314 123.942 138.443 124.673C138.294 124.695 138.136 124.723 138.026 124.824C137.918 124.923 137.876 125.073 137.839 125.214C137.688 125.788 137.536 126.361 137.385 126.935C137.291 127.294 137.35 127.852 137.72 127.815C142.54 127.326 147.386 127.094 152.231 127.118C152.74 127.12 153.436 127.322 153.37 127.827C148.209 127.888 143.029 127.95 137.924 128.71C137.111 128.831 136.549 127.825 136.641 127.008C136.734 126.191 137.202 125.459 137.334 124.648C137.448 123.948 137.306 123.235 137.152 122.544C136.909 121.444 136.637 120.351 136.337 119.266C136.044 118.207 135.724 117.155 135.404 116.104C134.92 114.513 134.436 112.923 133.953 111.333C133.287 112.307 132.991 113.527 133.135 114.697C133.235 115.512 133.538 116.287 133.764 117.076C134.088 118.204 134.258 119.37 134.427 120.532C134.76 122.821 135.093 125.109 135.426 127.398C135.475 127.734 135.378 128.23 135.041 128.181C133.545 123.551 133.955 118.431 132.189 113.897C132.578 112.978 132.968 112.058 133.357 111.139ZM144.505 111.979C144.992 111.707 145.245 111.074 145.078 110.541C144.911 110.009 144.341 109.634 143.786 109.69C142.424 109.828 141.062 109.966 139.701 110.104C139.575 110.117 139.434 110.137 139.359 110.239C139.299 110.319 139.298 110.427 139.304 110.526C139.34 111.148 139.556 111.759 139.919 112.266C140.201 112.66 140.591 113.131 140.371 113.562C140.096 114.101 139.191 113.799 138.967 113.237C138.743 112.675 138.902 112.041 138.861 111.437C138.819 110.833 138.385 110.138 137.788 110.239C136.809 110.403 135.831 110.568 134.852 110.733C134.711 110.757 134.528 110.843 134.569 110.98C135.761 114.925 136.953 118.87 138.145 122.815C138.293 123.306 138.628 123.915 139.128 123.798C143.719 122.726 148.559 123.74 153.22 123.035C151.824 118.657 150.379 114.294 148.886 109.948C148.842 109.82 148.792 109.683 148.683 109.603C148.562 109.515 148.399 109.517 148.249 109.524C147.549 109.553 146.85 109.583 146.151 109.613C145.874 109.624 145.497 109.756 145.558 110.026C145.748 110.873 145.938 111.72 146.128 112.567C146.161 112.713 146.193 112.869 146.138 113.008C145.991 113.387 145.433 113.291 145.061 113.127C144.817 113.02 144.56 112.902 144.41 112.682C144.259 112.462 144.272 112.108 144.505 111.979ZM142.703 105.833C142.166 105.44 141.461 105.156 140.843 105.4C140.627 105.485 140.44 105.627 140.255 105.768C139.928 106.019 139.59 106.282 139.396 106.647C139.216 106.986 139.179 107.38 139.146 107.763C139.116 108.098 139.087 108.432 139.058 108.767C139.039 108.974 139.032 109.212 139.182 109.356C139.327 109.494 139.553 109.484 139.752 109.466C141.176 109.33 142.6 109.195 144.025 109.059C144.228 109.04 144.476 108.985 144.529 108.788C144.55 108.71 144.533 108.628 144.514 108.55C144.252 107.47 143.598 106.49 142.703 105.833ZM142.169 109.372C142.026 109.412 142.185 109.681 142.29 109.574C142.423 109.52 142.275 109.269 142.163 109.36L142.169 109.372Z" fill="#D2EF05"/>
<path fill-rule="evenodd" clip-rule="evenodd" d="M97.0136 77.3542C96.9888 77.2708 97.0384 77.1836 97.0969 77.1192C97.3838 76.8032 97.8642 76.7797 98.291 76.7788C100.879 76.7727 103.467 76.7667 106.055 76.7607C106.237 76.7603 106.432 76.7638 106.581 76.8691C106.729 76.9743 106.787 77.2224 106.645 77.3355C106.569 77.3956 106.464 77.3994 106.367 77.4004C103.36 77.4338 100.354 77.4672 97.3475 77.5006C97.2166 77.502 97.0511 77.4797 97.0136 77.3542Z" fill="#00160A"/>
<path fill-rule="evenodd" clip-rule="evenodd" d="M97.9728 80.0259C97.8168 79.9362 97.8384 79.6848 97.9695 79.5617C98.1007 79.4385 98.2918 79.4096 98.4704 79.3881C99.5416 79.2589 100.619 79.1879 101.696 79.117C102.289 79.0779 102.882 79.0388 103.475 78.9998C104.246 78.949 105.018 78.8982 105.789 78.8474C106.034 78.8312 106.307 78.8242 106.492 78.9862C106.676 79.1482 106.631 79.5378 106.386 79.5529C103.664 79.7216 100.942 79.8902 98.2206 80.0588C98.1361 80.064 98.0461 80.0681 97.9728 80.0259L97.9728 80.0259Z" fill="#00160A"/>
<path fill-rule="evenodd" clip-rule="evenodd" d="M112.563 83.5451C112.769 83.1543 112.992 82.7443 113.37 82.5166C113.749 82.2888 114.329 82.3359 114.533 82.7277C114.749 83.1447 114.427 83.6474 114.048 83.9257C113.669 84.2041 113.204 84.4003 112.958 84.8007C114.288 85.6771 115.618 86.5534 116.947 87.4297C117.989 88.1161 119.168 89.0964 118.954 90.3255C118.829 91.0461 118.219 91.6063 117.538 91.8751C116.858 92.144 116.11 92.1721 115.379 92.1931C110.466 92.3346 105.547 92.3097 100.636 92.1184C100.295 92.1051 99.9147 92.0734 99.6877 91.8189C99.5118 91.6217 99.4755 91.3405 99.4471 91.0778C99.1644 88.4634 98.8816 85.8491 98.5989 83.2347C98.5885 83.1381 98.5786 83.0373 98.6131 82.9465C98.7586 82.5648 99.3296 82.8 99.6489 83.0548C101.91 84.8595 105.525 84.6475 107.559 82.5908C108.051 82.0938 108.888 82.1581 109.519 82.4577C110.151 82.7573 110.679 83.2448 111.313 83.5401C111.245 83.1738 111.568 82.7872 111.941 82.7887C112.313 82.7902 112.633 83.1793 112.563 83.5451ZM112.841 85.2295C112.68 84.6361 111.803 84.5117 111.319 84.8914C110.835 85.2711 110.679 85.9324 110.637 86.5459C110.621 86.7747 110.245 86.7975 110.116 86.6079C109.987 86.4182 110.039 86.1626 110.111 85.9447C110.3 85.3696 110.59 84.8282 110.966 84.3532C111.151 84.118 110.879 83.8 110.634 83.6277C109.769 83.0194 108.544 82.4193 107.75 83.1183C105.576 85.0336 102.107 85.2888 99.6754 83.7123C99.7044 85.6748 99.849 87.6355 100.108 89.581C100.134 89.777 100.168 89.9864 100.303 90.1305C100.482 90.3211 100.776 90.3345 101.037 90.3348C105.261 90.3402 109.485 90.3455 113.709 90.3509C114.12 90.3514 114.679 90.2046 114.647 89.7949C114.572 88.8412 114.995 87.8623 115.739 87.2621C115.154 86.8365 114.568 86.411 113.982 85.9854C113.803 85.8556 113.616 85.7221 113.399 85.6848C112.741 85.5722 112.302 86.3256 112.07 86.9506C111.714 86.3138 112.129 85.3874 112.841 85.2295ZM101.801 91.7412C106.2 91.7756 110.599 91.7683 114.997 91.719C116.246 91.7051 117.704 91.5783 118.381 90.529C112.307 90.7959 106.225 90.8619 100.147 90.727C100.071 91.4566 101.068 91.7354 101.801 91.7412M116.855 87.8203C116.724 87.7374 116.589 87.6527 116.436 87.6265C115.975 87.5475 115.612 88.0074 115.412 88.4297C115.296 88.6739 115.196 88.9253 115.111 89.182C115.047 89.3775 114.991 89.5854 115.031 89.7872C115.072 89.9891 115.237 90.18 115.443 90.1824C116.191 90.1909 116.939 90.1829 117.687 90.1585C117.863 90.1527 118.055 90.1402 118.187 90.0232C118.342 89.8855 118.361 89.6478 118.323 89.4439C118.182 88.7056 117.49 88.2227 116.855 87.8203ZM114.213 83.0454C114.204 82.8176 113.9 82.7019 113.69 82.7898C113.48 82.8777 113.35 83.0867 113.235 83.2832C113.095 83.5208 112.956 83.7583 112.816 83.9958C112.743 84.1204 112.703 84.3323 112.844 84.3636C113.216 84.0549 113.587 83.7462 113.958 83.4374C114.083 83.3341 114.218 83.2069 114.213 83.0454ZM111.806 83.4166C111.743 83.7238 111.901 84.0632 112.176 84.2132C112.271 83.8969 112.215 83.5384 112.028 83.2662C112.016 83.1892 111.912 83.1447 111.848 83.1897C111.799 83.2517 111.782 83.3373 111.803 83.4135L111.806 83.4166Z" fill="#00160A"/>
<path fill-rule="evenodd" clip-rule="evenodd" d="M96.6827 74.3591C96.5711 73.8186 96.4594 73.2782 96.3478 72.7378C96.3044 72.5277 96.2646 72.2946 96.3747 72.1106C96.5249 71.8597 96.8686 71.8263 97.161 71.8212C104.341 71.6962 111.523 71.7235 118.701 71.9031C119.191 71.9154 119.593 72.3382 119.742 72.805C119.891 73.2717 119.842 73.7755 119.792 74.2628C119.764 74.526 119.721 74.8197 119.511 74.9808C119.339 75.1129 119.104 75.1162 118.887 75.1138C111.677 75.0351 104.467 74.9564 97.2568 74.8777C97.1381 74.8764 97.0125 74.8732 96.9121 74.8099C96.7652 74.7175 96.7178 74.5291 96.6827 74.3591ZM97.6744 72.2952C97.1437 72.2914 96.7674 72.9218 96.9 73.4357C97.0326 73.9496 97.5291 74.3033 98.0449 74.4282C98.5607 74.5532 99.1007 74.4929 99.6291 74.4435C106.14 73.8348 112.725 74.9981 119.231 74.3416C119.265 73.9458 119.298 73.5365 119.17 73.1602C119.043 72.7839 118.711 72.4467 118.313 72.4439C111.434 72.3943 104.554 72.3447 97.6744 72.2952Z" fill="#00160A"/>
<path fill-rule="evenodd" clip-rule="evenodd" d="M53.3899 90.0125C53.1496 90.468 52.8182 90.9306 52.3214 91.0662C51.3751 91.3243 50.5926 90.2737 50.3344 89.3274C49.9312 87.8502 50.0332 86.24 50.6195 84.8254C50.9332 84.0686 50.6717 83.1739 50.1799 82.5187C49.2524 81.2831 47.5221 80.742 46.0354 81.1624C44.5486 81.5828 43.3754 82.9053 43.0644 84.4187C43.0157 84.6556 43.0501 84.9884 43.2897 85.022C44.4845 85.1892 45.0331 86.5916 45.215 87.7844C45.3539 88.6951 45.4143 89.6493 45.1054 90.5172C44.7964 91.3851 44.0403 92.1475 43.1217 92.2173C42.2974 91.6622 41.6767 90.8114 41.3999 89.8569C40.885 88.0816 41.5539 86.1998 42.2444 84.4853C42.6659 83.4389 43.1183 82.3675 43.9189 81.5728C45.6302 79.874 48.8257 80.0757 50.3098 81.9761C50.8808 82.7071 51.2083 83.6152 51.841 84.2935C52.3179 84.8048 52.9484 85.1627 53.3835 85.71C54.3284 86.8988 54.0986 88.6694 53.3899 90.0125ZM41.9235 86.7306C41.4902 87.9248 41.6109 89.3076 42.2445 90.4086C42.3486 90.5895 42.4724 90.7694 42.6543 90.8717C42.8362 90.974 43.0898 90.9756 43.2336 90.8244C43.6645 90.3713 43.7184 89.6862 43.717 89.0609C43.7153 88.3215 43.6697 87.5821 43.5805 86.8481C43.544 86.5476 43.4817 86.2155 43.2387 86.035C42.9957 85.8545 42.5396 86.0055 42.5777 86.3058C42.6888 87.1795 42.7998 88.0532 42.9109 88.9269C42.9361 89.1256 42.9584 89.3406 42.8588 89.5144C42.7592 89.6882 42.4841 89.7692 42.358 89.6136C42.0312 88.9468 41.9327 88.1707 42.0825 87.4434C42.1363 87.182 42.1735 86.8242 41.9235 86.7306M51.9259 90.1954C52.0363 90.1093 52.0879 89.9693 52.1291 89.8355C52.453 88.7836 52.4565 87.6353 52.1389 86.5815C52.0182 86.1808 51.691 85.7121 51.2946 85.8463C51.0656 85.9239 50.9495 86.1746 50.8766 86.4052C50.5452 87.4528 50.5893 88.6149 50.999 89.6344C51.0775 89.8298 51.1747 90.0273 51.341 90.1563C51.5073 90.2853 51.76 90.3249 51.9259 90.1954ZM44.1489 86.4149C44.4376 87.8781 44.3762 89.409 43.9712 90.8444C43.934 90.9765 44.0838 91.0795 44.2093 91.1352C44.8168 89.6618 44.8937 87.9762 44.4229 86.4536C44.3449 86.3979 44.2393 86.383 44.1489 86.4149ZM52.5766 86.0197C52.4868 86.1629 52.3971 86.3062 52.3074 86.4494C52.6032 86.3993 52.7385 86.8029 52.7543 87.1025C52.7909 87.795 52.8275 88.4875 52.8641 89.1801C53.1396 89.0767 53.1895 88.715 53.1946 88.4208C53.2062 87.7582 53.2178 87.0957 53.2293 86.4331C53.1301 86.4215 53.0309 86.4099 52.9317 86.3982C52.9215 86.2106 52.7632 86.0419 52.5766 86.0197Z" fill="#00160A"/>
<path fill-rule="evenodd" clip-rule="evenodd" d="M85.057 87.2765C83.0831 87.1823 81.1006 87.2679 79.1421 87.532C78.9688 87.5553 78.7748 87.5751 78.6355 87.4693C78.4963 87.3636 78.5115 87.083 78.6853 87.0639C80.6439 86.8487 82.611 86.7102 84.5804 86.6489C84.7946 86.6422 85.0344 86.646 85.187 86.7964C85.3396 86.9469 85.271 87.2867 85.057 87.2765Z" fill="#00160A"/>
<path fill-rule="evenodd" clip-rule="evenodd" d="M39.2043 79.3947C39.7647 79.3421 40.3251 79.2894 40.8854 79.2368C41.1677 79.2102 41.45 79.1837 41.7323 79.1572C43.5279 78.9885 45.3235 78.8198 47.1207 78.6698C47.1912 78.6639 47.265 78.6585 47.3304 78.6857C47.5249 78.7665 47.495 79.0807 47.3255 79.2057C47.156 79.3307 46.9267 79.3235 46.7163 79.3165C44.0695 79.2284 41.4318 80.0239 38.7973 79.7548C38.6261 79.7373 38.4021 79.6492 38.4323 79.4797C38.6887 79.4431 38.9466 79.4189 39.2043 79.3947Z" fill="#00160A"/>
<path fill-rule="evenodd" clip-rule="evenodd" d="M99.5606 137.558C99.4725 136.788 99.4093 135.949 98.8911 135.372C98.4933 134.929 98.6991 134.105 99.2584 133.901C99.8178 133.697 100.505 134.195 100.486 134.79C100.479 134.995 100.405 135.19 100.347 135.386C99.9515 136.724 100.319 138.165 100.802 139.474C101.291 140.8 102.04 142.212 103.385 142.648C104.941 143.152 106.662 142.036 107.352 140.553C108.041 139.071 107.936 137.349 107.695 135.731C107.671 135.569 107.628 135.382 107.479 135.313C106.874 135.034 106.782 134.052 107.325 133.665C107.867 133.279 108.765 133.686 108.832 134.349C108.854 134.574 108.797 134.798 108.754 135.02C108.457 136.56 108.85 138.175 108.524 139.71C108.32 140.671 107.831 141.569 107.135 142.262C106.397 142.997 105.4 143.504 104.359 143.521C102.956 143.545 101.645 142.675 100.852 141.518C100.06 140.361 99.7198 138.952 99.5606 137.558Z" fill="#00160A"/>
<path fill-rule="evenodd" clip-rule="evenodd" d="M58.6687 74.275C58.7076 74.8029 58.7448 75.3468 58.5803 75.85C58.4158 76.3532 57.9977 76.8117 57.4703 76.857C54.7511 77.0908 52.0316 77.3246 49.3071 77.4858C45.5922 77.7057 41.8708 77.7904 38.1504 77.8751C38.0177 77.8781 37.8756 77.8786 37.7648 77.8054C37.5986 77.6956 37.5675 77.4689 37.5521 77.2703C37.5119 76.7502 37.4717 76.2301 37.4314 75.71C37.4192 75.5518 37.4099 75.381 37.4952 75.2472C37.62 75.0511 37.8873 75.0175 38.1193 75.0037C44.962 74.5981 51.8144 74.3551 58.6687 74.275ZM57.5238 76.0993C57.961 76.0701 58.0495 75.3821 57.7289 75.0834C57.4084 74.7847 56.9216 74.7781 56.4836 74.789C50.8521 74.9289 45.2186 75.069 39.5983 75.4512C39.1936 75.4788 38.7725 75.5124 38.4226 75.7177C38.0727 75.9231 37.8201 76.3548 37.9538 76.7379C38.1437 77.282 38.8778 77.3418 39.4528 77.3035C45.4765 76.9021 51.5002 76.5007 57.5238 76.0993Z" fill="#00160A"/>
<path fill-rule="evenodd" clip-rule="evenodd" d="M51.6768 87.4172C51.6822 87.5602 51.6876 87.7033 51.693 87.8463C51.7042 88.1441 51.7154 88.4438 51.6723 88.7386C51.299 88.699 51.1832 88.2187 51.1614 87.8439C51.151 87.6655 51.1476 87.4664 51.267 87.3336C51.3864 87.2007 51.6701 87.2387 51.6768 87.4172L51.6768 87.4172Z" fill="#00160A"/>
<path fill-rule="evenodd" clip-rule="evenodd" d="M78.5642 88.6363C78.9305 88.298 79.4876 88.3086 79.986 88.3228C81.5627 88.3676 83.1441 88.2457 84.6953 87.9599C84.8782 87.9262 84.9765 88.2106 84.8626 88.3576C84.7487 88.5045 84.5428 88.5353 84.3578 88.5541C82.6095 88.7319 80.8538 88.8373 79.0967 88.8699C78.8874 88.8738 78.6219 88.8376 78.5642 88.6363Z" fill="#00160A"/>
<path fill-rule="evenodd" clip-rule="evenodd" d="M137.426 94.5474C137.253 95.1323 136.679 95.4939 136.131 95.7619C133.389 97.1029 130.166 97.4311 127.21 96.6704C126.217 96.415 125.086 95.824 125.044 94.7998C125.013 94.0468 125.614 93.4158 126.25 93.0123C127.226 92.3932 128.365 92.0806 129.499 91.8601C131.689 91.4347 134.062 91.3469 136.044 92.3699C136.874 92.7984 137.691 93.6515 137.426 94.5474M125.721 94.6859C125.722 95.5131 126.645 95.9975 127.445 96.2073C130.224 96.9362 133.264 96.6217 135.834 95.3393C136.247 95.1336 136.682 94.8622 136.813 94.4203C136.989 93.8266 136.529 93.2286 136.019 92.878C134.483 91.8225 132.451 91.9669 130.598 92.1652C129.107 92.3249 127.517 92.5335 126.381 93.5118C126.029 93.8141 125.72 94.2224 125.721 94.6859L125.721 94.6859Z" fill="#00160A"/>
<path fill-rule="evenodd" clip-rule="evenodd" d="M56.7554 46.0934C56.6619 45.5616 57.0286 45.0332 57.5012 44.772C57.9738 44.5108 58.5308 44.4604 59.0698 44.4287C63.8755 44.1459 68.6737 44.9178 73.481 45.1715C74.0998 45.2041 74.7521 45.2383 75.2727 45.5744C75.7932 45.9106 76.0988 46.665 75.7387 47.1692C75.5645 47.4131 75.2765 47.5486 74.9908 47.6388C74.1666 47.8992 73.2822 47.8646 72.4187 47.8275C67.9245 47.6343 63.4302 47.4411 58.936 47.2479C58.0437 47.2095 56.91 46.973 56.7554 46.0934M57.3722 45.3228C57.1182 45.6807 57.3308 46.2146 57.6977 46.4554C58.0646 46.6961 58.5269 46.7232 58.9652 46.743C63.7283 46.9573 68.4913 47.1717 73.2544 47.386C73.7185 47.4069 74.2325 47.4115 74.5841 47.1079C74.9358 46.8043 74.8893 46.0802 74.4305 46.0072C69.1341 45.1651 63.7594 44.8154 58.3985 44.964C58.0221 44.9745 57.5901 45.0157 57.3722 45.3228" fill="#00160A"/>
<path fill-rule="evenodd" clip-rule="evenodd" d="M109.454 41.4783C110.185 39.9551 111.371 38.3848 113.055 38.255C114.178 38.1684 115.368 38.3647 116.256 39.0561C117.867 40.3101 117.979 42.7417 117.404 44.7003C116.725 47.0089 115.211 49.147 113.039 50.1823C112.521 50.4293 111.958 50.6139 111.384 50.5914C109.86 50.5316 108.751 49.0345 108.423 47.5452C107.973 45.504 108.55 43.3627 109.454 41.4783M111.349 50.0338C112.476 50.1872 113.537 49.4697 114.332 48.6568C115.821 47.1331 116.821 45.1382 117.151 43.0331C117.245 42.4265 117.285 41.797 117.12 41.2056C116.795 40.0423 115.692 39.2016 114.509 38.9598C113.371 38.7271 112.121 39.0047 111.244 39.766C110.822 40.1318 110.495 40.5939 110.209 41.0734C109.276 42.6373 108.746 44.4571 108.811 46.2767C108.841 47.0988 108.996 47.9343 109.412 48.6438C109.829 49.3533 110.534 49.9229 111.349 50.0338Z" fill="#D2EF05"/>
<path fill-rule="evenodd" clip-rule="evenodd" d="M72.5145 106.129C72.6643 106.121 72.825 106.115 72.9518 106.195C73.1085 106.294 73.1657 106.492 73.2109 106.671C73.3097 107.065 73.4091 107.475 73.3295 107.872C73.2499 108.27 72.9359 108.653 72.5305 108.67C71.4962 108.716 70.462 108.761 69.4277 108.806C69.0221 108.824 68.547 108.882 68.3454 109.234C68.2088 109.473 68.2494 109.769 68.2942 110.041C68.421 110.81 68.7794 111.783 69.5587 111.755C70.0771 111.736 70.5391 112.129 70.7622 112.598C70.9854 113.066 71.0187 113.599 71.0484 114.117C71.0763 114.604 70.9519 115.27 70.4638 115.283C70.0701 115.292 69.9615 115.824 69.974 116.218C70.061 118.955 70.1479 121.693 70.2349 124.43C70.2489 124.871 69.6837 125.057 69.2446 125.101C65.5653 125.472 61.8477 125.462 58.1704 125.072C58.0386 125.058 57.8702 125.006 57.8673 124.873C57.7992 121.78 57.7311 118.687 57.6631 115.594C57.6591 115.414 57.5706 115.165 57.3968 115.212C56.8487 115.362 56.2977 114.854 56.1842 114.297C56.0707 113.74 56.2654 113.172 56.4572 112.637C56.5459 112.39 56.6454 112.128 56.8575 111.973C57.3104 111.642 58.1476 111.878 58.3505 111.355C58.384 111.269 58.3905 111.174 58.3872 111.081C58.3589 110.274 57.6067 109.636 56.8144 109.476C56.0221 109.317 55.2055 109.527 54.4339 109.767C54.2571 109.1 54.2118 108.398 54.3013 107.714C54.3224 107.552 54.3553 107.383 54.4638 107.261C54.6186 107.088 54.8764 107.064 55.1083 107.052C60.9104 106.744 66.7125 106.436 72.5145 106.129ZM57.045 112.395C56.9335 112.525 56.9087 112.705 56.8887 112.875C56.8363 113.318 56.7839 113.76 56.7315 114.203C56.7205 114.296 56.7102 114.394 56.7477 114.48C56.828 114.664 57.0709 114.696 57.2716 114.701C58.3367 114.727 59.4018 114.754 60.467 114.78C60.6466 114.784 60.8351 114.787 60.9946 114.704C61.2511 114.571 61.3565 114.21 61.2117 113.96C61.3421 113.947 61.4724 113.933 61.6028 113.92C61.5454 114.306 61.9386 114.629 62.3246 114.686C62.7106 114.742 63.0986 114.625 63.4875 114.594C64.3031 114.529 65.1174 114.849 65.9298 114.753C66.0153 114.743 66.1066 114.725 66.1664 114.663C66.2446 114.582 66.2431 114.456 66.2367 114.344C66.2059 113.804 66.1751 113.265 66.1443 112.726C66.1346 112.556 66.1201 112.373 66.0109 112.243C65.8551 112.056 65.5759 112.05 65.3332 112.06C64.1606 112.105 62.988 112.151 61.8153 112.196C61.7334 112.199 61.6428 112.206 61.5861 112.265C61.5225 112.331 61.5269 112.435 61.5355 112.527C61.5749 112.946 61.6143 113.366 61.6537 113.786C61.4981 113.801 61.3455 113.846 61.2071 113.919C61.1725 113.588 61.1379 113.258 61.1032 112.927C61.0717 112.626 60.9535 112.239 60.6505 112.235C59.6826 112.222 58.7148 112.209 57.747 112.196C57.4954 112.193 57.2092 112.204 57.045 112.395ZM62.621 115.649C62.6049 115.426 62.5084 115.131 62.2864 115.155C60.9064 115.303 59.5095 115.295 58.1314 115.13C58.1654 118.133 58.2213 121.135 58.2992 124.138C58.3093 124.524 58.797 124.679 59.1814 124.718C60.3236 124.835 61.4737 124.875 62.6213 124.838C62.7154 124.835 62.8173 124.828 62.889 124.767C62.9832 124.687 62.9893 124.546 62.9879 124.422C62.9551 121.495 62.8327 118.569 62.621 115.649ZM69.5225 115.483C69.4848 115.418 69.3987 115.405 69.3241 115.399C68.1369 115.298 66.9436 115.27 65.753 115.314C65.6451 115.318 65.5296 115.325 65.4442 115.391C65.3143 115.492 65.3064 115.681 65.31 115.845C65.3756 118.843 65.4413 121.84 65.5069 124.837C66.8177 124.964 68.1522 124.84 69.4173 124.474C69.496 124.451 69.5795 124.424 69.6304 124.36C69.6852 124.291 69.6889 124.196 69.6901 124.107C69.7149 122.179 69.6651 120.25 69.6153 118.323C69.5919 117.414 69.5684 116.506 69.545 115.598C69.5439 115.558 69.5424 115.517 69.5225 115.483ZM54.8018 107.885C54.5742 108.243 54.8189 108.748 55.193 108.948C55.5671 109.148 56.0154 109.129 56.4389 109.104C59.0008 108.956 61.5627 108.807 64.1246 108.659C66.5678 108.517 69.0113 108.376 71.4505 108.177C71.8078 108.148 72.1831 108.111 72.4783 107.908C72.7735 107.705 72.945 107.275 72.747 106.976C72.5484 106.676 72.1213 106.663 71.7622 106.681C66.4388 106.956 61.1154 107.23 55.792 107.505C55.4243 107.524 54.9994 107.574 54.8018 107.885M65.0418 124.767C64.8618 121.841 64.8261 118.907 64.935 115.977C64.9413 115.809 64.9468 115.634 64.8797 115.48C64.6836 115.029 64.0529 115.03 63.5669 115.105C63.3447 115.14 63.061 115.246 63.0777 115.47C63.286 118.272 63.4945 121.079 63.4477 123.888C63.4415 124.26 63.6545 124.627 63.9802 124.807C64.306 124.987 64.7305 124.971 65.0418 124.767ZM70.5398 113.966C70.4765 113.579 70.4103 113.184 70.2218 112.841C70.0333 112.497 69.6957 112.21 69.3044 112.19C68.5611 112.153 67.8177 112.116 67.0743 112.079C66.8808 112.069 66.6134 112.128 66.6227 112.321C66.651 112.91 66.6794 113.498 66.7077 114.086C66.7201 114.343 66.7679 114.653 67.0059 114.75C67.0826 114.782 67.1676 114.784 67.2505 114.786C68.2197 114.808 69.1889 114.83 70.1582 114.852C70.3431 114.857 70.4982 114.694 70.5487 114.516C70.5993 114.338 70.5697 114.148 70.5398 113.966ZM65.8471 111.067C65.7501 110.658 65.6489 110.24 65.4168 109.891C65.1846 109.541 64.7905 109.267 64.3718 109.298C63.7264 109.346 63.0811 109.393 62.4357 109.441C62.0337 109.47 61.5784 109.528 61.3427 109.855C61.0577 110.251 61.2532 110.803 61.1762 111.284C61.1491 111.453 61.2813 111.615 61.4395 111.681C61.5976 111.747 61.7753 111.739 61.9464 111.73C63.1016 111.671 64.2569 111.611 65.4121 111.552C65.5817 111.543 65.7853 111.512 65.8528 111.356C65.892 111.266 65.8698 111.162 65.8471 111.067ZM67.8716 110.327C67.6517 110.026 67.6572 109.58 67.8843 109.284C67.4793 109.033 66.9122 109.079 66.5537 109.393C66.1951 109.707 66.0744 110.263 66.2703 110.698C66.3394 110.851 66.2999 111.033 66.3485 111.193C66.4176 111.422 66.6566 111.565 66.8935 111.595C67.1304 111.624 67.368 111.562 67.5987 111.5C67.9012 111.419 68.2693 111.258 68.2664 110.944C68.2641 110.695 68.0189 110.529 67.8716 110.327ZM60.6522 111.399C60.7864 110.96 60.6059 110.46 60.2615 110.157C59.917 109.853 59.4346 109.735 58.9775 109.776C58.7939 109.793 58.6023 109.838 58.4695 109.966C58.3366 110.094 58.289 110.324 58.4088 110.464C58.4973 110.568 58.6487 110.598 58.7413 110.698C58.8826 110.85 58.8349 111.094 58.8997 111.291C59.0459 111.738 59.6518 111.78 60.1194 111.737C60.2795 111.723 60.4562 111.7 60.5615 111.578C60.6058 111.527 60.6325 111.464 60.6522 111.399ZM60.728 109.923C60.8364 109.818 60.856 109.633 60.7722 109.508C60.5855 109.452 60.3767 109.564 60.2785 109.732C60.3515 109.899 60.5567 109.996 60.7321 109.945M66.0557 109.457C66.0829 109.383 66.0669 109.296 66.0155 109.237C65.8383 109.181 65.6319 109.231 65.5003 109.362C65.6358 109.516 65.8821 109.557 66.0604 109.457L66.0557 109.457Z" fill="#00160A"/>
<path fill-rule="evenodd" clip-rule="evenodd" d="M137.477 97.0191C131.797 99.24 126.118 101.461 120.438 103.682C117.995 104.637 115.168 106.071 114.906 108.681C118.225 106.128 122.325 104.604 126.506 104.37C123.618 108.009 119.97 111.043 115.866 113.221C112.181 115.177 107.515 117.263 107.198 121.423C111.157 116.71 117.242 113.856 123.397 113.828C119.46 119.595 113.146 123.686 106.272 124.922C106.508 126.695 106.744 128.467 106.98 130.239C109.315 130.157 111.665 130.491 113.885 131.221C115.465 138.012 117.046 144.803 118.627 151.594C119.016 153.265 119.358 155.185 118.335 156.563C117.32 157.929 115.402 158.164 113.705 158.285C107.013 158.76 100.321 159.236 93.6296 159.712C92.8284 156.082 92.0272 152.452 91.226 148.823C79.9385 149.871 68.6511 150.919 57.3636 151.967C54.9866 152.188 52.4726 152.385 50.3217 151.35C42.52 147.594 33.0601 154.864 24.8199 152.204C32.0598 152.068 39.2773 150.805 46.1334 148.475C48.6199 147.63 51.597 145.316 50.2979 143.033C43.9397 147.47 35.7816 149.241 28.1562 147.84C28.6039 140.435 28.316 132.985 27.298 125.637C32.7238 124.861 38.0709 123.536 43.2314 121.689C44.6669 121.176 46.1436 120.585 47.1659 119.453C48.1881 118.322 48.6013 116.495 47.7032 115.263C39.8541 119.445 30.7915 121.317 21.9276 120.587C22.3901 130.616 22.8526 140.646 23.3152 150.675C22.005 140.653 21.3101 130.55 21.2359 120.443C25.7986 120.038 30.3614 119.634 34.9241 119.229C34.1905 115.972 33.4522 112.641 33.829 109.324C34.2059 106.007 35.9132 102.648 38.9141 101.185C36.6438 96.3424 33.2127 92.0493 28.9901 88.7673C24.0399 84.9199 17.6756 82.0193 15.4151 76.1715C13.9205 72.305 14.6536 67.8076 16.7232 64.2159C18.7928 60.6242 22.0722 57.8574 25.6365 55.741C20.7293 54.4796 17.0123 49.588 17.1117 44.5223C17.2112 39.4565 21.1173 34.7145 26.0702 33.6467C23.735 30.8639 20.0579 29.5884 17.3721 27.1424C14.2432 24.2929 12.671 19.6963 13.8107 15.6208C14.9504 11.5452 18.9632 8.33859 23.1913 8.51927C26.6643 8.66769 29.7206 10.8643 32.1448 13.3556C35.9045 17.2194 38.7007 22.0137 40.2124 27.1886C41.2201 30.6378 44.9129 32.3925 48.0316 34.1775C51.1503 35.9625 54.3889 39.0718 53.5103 42.5561C52.3486 37.7882 48.4478 33.7917 43.7095 32.5148C41.2405 31.8494 40.3407 28.9114 39.5465 26.4808C38.0011 21.7509 35.3628 17.3819 31.8965 13.8119C29.2916 11.129 25.8858 8.78788 22.1517 8.98944C18.3078 9.19694 14.9192 12.3238 14.0404 16.0717C13.1615 19.8196 14.635 23.9264 17.4398 26.5631C20.2967 29.2487 24.3838 30.5643 26.687 33.7375C21.6916 34.7527 17.7423 39.5601 17.716 44.6576C17.6898 49.755 21.5894 54.6028 26.5741 55.6694C23.0613 57.7256 19.7743 60.3377 17.607 63.7831C15.4397 67.2286 14.5107 71.6016 15.8075 75.4599C18.8069 84.384 31.3086 86.514 35.7205 94.8309C36.9154 90.9062 35.1638 86.7797 34.2636 82.7772C33.3634 78.7746 33.8722 73.6348 37.6039 71.9303C36.5133 66.6738 35.4227 61.4173 34.3321 56.1609C33.5194 52.2439 33.1116 47.2814 36.4812 45.1252C34.1071 44.3889 31.9999 42.8205 30.6132 40.7576C32.1108 43.0498 34.995 44.3504 37.7044 43.9553C34.2806 36.5332 30.4842 29.2829 26.3345 22.241C30.8059 28.9832 34.7632 36.0662 38.1608 43.4084C53.8752 42.9832 69.6141 43.4673 85.2726 44.8575C87.3516 45.0421 89.5891 45.3108 91.1259 46.7231C93.3345 48.7526 96.6503 49.4928 99.5123 48.5952C100.423 50.8525 101.093 53.3879 100.319 55.6955C99.5446 58.0032 96.803 59.7645 94.6112 58.7059C95.1833 61.6492 95.7554 64.5924 96.3275 67.5356C101.931 67.603 107.534 67.7174 113.136 67.8788C116.105 67.9644 119.208 68.0995 121.788 69.5704C124.369 71.0413 126.19 74.2995 125.04 77.0383C125.773 74.7749 126.506 72.5116 127.239 70.2482C129.823 74.3497 131.092 79.2657 130.816 84.1054C131.711 82.7434 132.607 81.3815 133.502 80.0195C130.322 75.0144 129.917 68.3622 132.466 63.0084C134.967 67.1495 136.376 71.9437 136.512 76.7794C137.445 68.0643 143.62 60.119 151.835 57.0635C150.41 60.3477 148.984 63.6318 147.559 66.9159C146.339 69.7278 144.789 72.8465 141.856 73.7398C139.922 74.3291 137.122 74.2934 136.771 76.2847C142.326 74.828 148.239 74.7558 153.829 76.0766C149.522 81.2548 141.222 82.5298 135.559 78.8832C132.888 81.8626 130.573 85.1617 128.681 88.6877C131.895 84.6922 136.898 82.1936 142.024 82.0238C139.27 85.2783 136.164 88.2345 132.778 90.8241C134.575 90.9967 136.518 91.2335 137.822 92.4828C139.126 93.732 139.159 96.3615 137.477 97.0191ZM62.506 64.2213C63.9956 64.2041 65.6641 64.257 66.7039 65.3237C67.4972 66.1375 67.7098 67.3379 67.8827 68.4611C68.6735 73.5978 69.414 78.7422 70.104 83.8934C70.277 85.1855 69.1937 86.3778 67.9562 86.7875C66.7187 87.1972 65.3731 87.0174 64.0826 86.8333C65.1586 85.9045 66.9752 86.5702 68.1334 85.7461C69.172 85.0071 69.166 83.4894 69.0417 82.2207C68.5754 77.464 67.9404 72.7239 67.1384 68.0122C66.9966 67.1793 66.8229 66.2933 66.2329 65.6886C65.4473 64.8833 64.1919 64.8297 63.0668 64.8283C58.4487 64.8225 53.8305 64.8168 49.2124 64.811C48.4164 64.81 47.5789 64.8195 46.8879 65.2145C44.8994 66.3511 45.6325 69.3529 46.6209 71.419C49.4212 70.8513 52.2826 70.5852 55.1395 70.6267C57.6705 70.6634 60.8268 71.4853 61.2536 73.9804C62.1912 79.4617 63.1288 84.9431 64.0665 90.4244C64.5581 93.2984 64.8291 96.7902 62.5323 98.5864C61.3846 99.484 59.8615 99.6979 58.416 99.8807C54.8619 100.33 51.3078 100.779 47.7537 101.229C49.234 114.19 50.7143 127.151 52.1945 140.112C52.3596 141.557 52.6619 143.219 53.9331 143.927C54.6851 144.346 55.5973 144.312 56.4568 144.265C67.781 143.647 79.0944 142.83 90.3897 141.812C89.938 140.782 89.9291 139.567 90.3656 138.531C91.5097 145.229 92.6538 151.927 93.7978 158.625C95.8009 157.244 95.493 154.247 94.9612 151.873C93.6148 145.862 92.2684 139.852 90.922 133.841C90.3769 134.841 89.8318 135.841 89.2867 136.841C89.0191 135.592 89.7682 134.301 90.8072 133.559C91.8462 132.816 93.1269 132.512 94.3754 132.244C98.2138 131.421 102.094 130.793 105.996 130.362C104.862 122.363 103.728 114.364 102.594 106.365C95.6227 108.28 88.24 107.677 81.0369 107.059C78.9034 106.877 76.1921 106.159 75.9887 104.027C75.4772 98.6684 74.9658 93.3099 74.4543 87.9514C74.3877 87.2528 73.9829 86.3118 73.3165 86.5319C71.6791 87.0725 70.7052 84.7395 70.5711 83.0203C70.1507 77.6278 69.7302 72.2352 69.3098 66.8427C69.2546 66.1355 69.2404 65.3192 69.7677 64.8448C70.1369 64.5127 70.6688 64.4518 71.1634 64.4066C74.6919 64.084 78.2204 63.7614 81.7489 63.4388C83.7638 63.2546 86.0526 63.1593 87.5187 64.5536C88.5536 65.5378 88.9008 67.03 89.1192 68.4412C89.5218 71.0422 89.6551 73.6847 89.5163 76.313C89.2367 73.7439 88.9571 71.1748 88.6775 68.6058C88.5517 67.4498 88.398 66.2241 87.6677 65.3192C86.4214 63.7748 84.1025 63.8008 82.1245 63.9635C78.5913 64.2542 75.0581 64.545 71.5248 64.8357C71.049 64.8748 70.5333 64.9311 70.1874 65.2602C69.7374 65.6884 69.7501 66.3971 69.7951 67.0166C70.1737 72.2281 70.5522 77.4396 70.9308 82.651C71.0023 83.6346 71.0995 84.6862 71.7214 85.4516C72.3432 86.217 73.6924 86.4574 74.2735 85.6605C73.4774 83.9105 74.5786 81.7678 76.2083 80.748C77.8381 79.7282 79.8383 79.5486 81.7547 79.3957C85.0599 79.132 88.3651 78.8683 91.6704 78.6046C91.4438 71.7636 90.7061 64.9395 89.4653 58.2081C88.3221 57.8884 87.2812 57.2128 86.5236 56.2988C85.9569 57.7589 84.2686 58.6869 82.7321 58.3827C81.1956 58.0785 79.9882 56.5773 80.0206 55.0113C79.8383 56.8134 78.2684 58.3765 76.4655 58.5508C74.6627 58.7251 72.8224 57.4918 72.2983 55.758C71.435 56.7209 70.3146 57.5506 69.0267 57.6678C67.7388 57.785 66.3142 56.9717 66.1047 55.6955C64.4133 57.8898 60.4823 57.6672 59.0495 55.2959C57.5757 57.7281 53.3801 57.6684 51.9762 55.1952C51.3458 57.4817 47.827 57.6646 46.1378 55.9996C44.4487 54.3346 44.1199 51.7697 43.8849 49.4096C41.0967 52.096 40.5937 56.4117 41.1229 60.2471C41.6521 64.0825 43.0311 67.7772 43.3656 71.6345C44.1295 71.8266 44.9673 71.7053 45.6453 71.3046C44.9129 69.0913 44.4313 66.1177 46.4195 64.9003C47.217 64.4119 48.2038 64.3869 49.1389 64.3761C53.5946 64.3245 58.0503 64.2729 62.506 64.2213ZM106.646 101.469C112.49 101.179 118.52 101.941 124.074 100.099C124.934 99.8137 125.814 99.438 126.368 98.7216C124.949 98.0695 123.443 96.9451 123.477 95.384C123.5 94.3587 124.211 93.4724 125.011 92.8313C125.851 92.1584 126.829 91.6585 127.867 91.372C127.951 91.1152 127.5 91.0596 127.276 91.2113C127.052 91.3631 126.713 91.5509 126.564 91.3252C126.524 91.2646 126.516 91.1891 126.509 91.1169C125.951 85.4435 125.125 79.7965 124.034 74.2012C123.706 72.5189 123.218 70.6449 121.736 69.7852C120.935 69.3209 119.976 69.243 119.052 69.1791C112.102 68.6982 105.139 68.4037 98.1724 68.2959C96.5262 68.2704 94.6845 68.3316 93.5304 69.5058C92.6548 70.3966 92.4041 71.7196 92.3113 72.9652C92.0242 76.8221 92.8502 80.6614 93.3875 84.4915C94.0311 89.0795 94.2628 93.714 94.6873 98.3274C94.7438 98.9414 94.8124 99.5811 95.1445 100.101C95.7137 100.991 96.8696 101.27 97.9163 101.417C99.4626 101.634 101.026 101.726 102.587 101.691C103.942 101.661 105.292 101.536 106.646 101.469ZM58.6777 71.7086C56.6991 70.839 54.4328 71.0718 52.2859 71.3211C49.0383 71.6981 45.7908 72.0752 42.5432 72.4522C40.9823 72.6334 39.4199 72.8149 37.8757 73.106C37.5035 73.1762 37.1299 73.2535 36.7787 73.3955C35.4023 73.9518 34.5818 75.4359 34.3908 76.9081C34.1999 78.3803 34.5271 79.8645 34.8408 81.3155C35.8157 85.8251 36.6804 90.3769 36.9149 94.9846C36.9613 95.8968 36.9847 96.8211 37.2354 97.6994C37.4861 98.5776 37.998 99.4226 38.7985 99.8625C39.4142 100.201 40.1375 100.271 40.8386 100.317C47.2649 100.74 53.6876 99.7032 60.0444 98.6704C60.9488 98.5234 61.9003 98.3558 62.6054 97.7705C63.6942 96.8667 63.8569 95.2765 63.8491 93.8614C63.8346 91.2479 63.5182 88.6362 62.9082 86.0949C62.1946 83.1226 61.0743 80.1988 61.0446 77.1422C61.0315 75.794 61.2085 74.3413 60.5051 73.1911C60.0894 72.5115 59.407 72.0292 58.6777 71.7086ZM28.0985 128.308C28.9623 134.515 29.2526 140.801 28.9643 147.061C28.9491 147.391 29.35 147.56 29.6745 147.622C33.8301 148.416 38.1097 147.398 42.1421 146.118C44.4344 145.39 46.7284 144.56 48.7109 143.199C49.6178 142.576 50.5355 141.637 50.3659 140.55C49.2764 133.566 48.6772 126.506 48.5741 119.439C44.905 122.306 40.249 123.522 35.7364 124.67C33.5976 125.214 31.4298 125.762 29.223 125.743C28.6895 125.739 28.2466 126.208 28.0975 126.72C27.9484 127.232 28.0249 127.779 28.0985 128.308M112.436 131.445C105.563 130.776 98.5518 131.562 91.9978 133.736C92.3913 136.73 92.929 139.705 93.6084 142.647C93.8804 143.825 94.1752 144.997 94.4699 146.17C95.0438 148.453 95.6177 150.737 96.1917 153.021C96.2715 153.339 96.3716 153.686 96.6455 153.866C96.8901 154.026 97.2065 154.008 97.4981 153.984C104.285 153.418 111.067 152.804 117.845 152.144C116.363 145.539 114.882 138.934 113.4 132.329C113.343 132.075 113.274 131.802 113.073 131.638C112.898 131.496 112.66 131.467 112.436 131.445ZM102.304 102.451C100.809 102.527 99.291 102.601 97.8308 102.269C96.3705 101.938 94.9496 101.142 94.1997 99.8456C93.7692 100.341 92.9135 100.378 92.4418 99.9219C91.97 99.4657 91.9785 98.6092 92.4593 98.1625C90.5595 98.1796 88.6597 98.1967 86.7599 98.2139C87.6282 98.7253 87.5568 100.233 86.6593 100.691C85.7618 101.149 84.5194 100.376 84.4986 99.3683C84.4893 98.916 84.7666 98.4083 85.2171 98.3678C85.0304 98.0476 84.5454 98.2371 84.1764 98.2022C83.6205 98.1496 83.3167 97.5438 83.1217 97.0206C82.3307 94.8985 81.611 92.7506 80.8915 90.6033C81.3954 91.4279 82.53 91.7989 83.4237 91.4312C83.7395 91.3013 83.749 90.8473 83.6146 90.5334C83.3799 89.9855 82.8449 89.5631 82.2507 89.5164C81.6564 89.4697 81.038 89.8329 80.837 90.3941C80.5392 90.1714 80.6661 89.6564 80.9786 89.4547C81.2911 89.253 81.6913 89.2708 82.0625 89.2932C85.5666 89.5048 89.0836 89.5014 92.5873 89.2831C92.7467 89.2732 92.9226 89.2554 93.0313 89.1383C93.1542 89.006 93.1423 88.8016 93.1228 88.622C92.9889 87.3896 92.8549 86.1572 92.721 84.9247C92.7062 84.7881 92.685 84.6385 92.5829 84.5465C92.4704 84.4451 92.301 84.4498 92.1499 84.4605C87.758 84.7735 83.3775 85.2462 79.02 85.8776C78.5561 85.9448 78.1246 85.5555 77.9783 85.1102C77.8319 84.6649 77.8995 84.1812 77.9687 83.7176C77.9929 83.5549 78.0239 83.3789 78.1444 83.2669C78.2553 83.1638 78.4161 83.1396 78.5663 83.1204C83.0999 82.5418 87.663 82.1946 92.2319 82.0805C92.1211 82.532 91.5325 82.6292 91.0677 82.6374C86.8273 82.7127 82.5917 83.0526 78.3935 83.6545C78.0584 84.2278 78.5177 85 79.1365 85.241C79.7553 85.482 80.4485 85.3532 81.1011 85.2304C84.698 84.5534 88.3472 84.1544 92.0054 84.0383C92.5277 84.0217 92.5902 83.2701 92.4804 82.7592C92.2255 81.5727 91.9706 80.3863 91.7156 79.1998C89.1823 79.6796 86.5944 79.871 84.018 79.7692C82.4936 79.709 80.9772 79.9754 79.4748 80.2408C78.1979 80.4663 76.8372 80.7337 75.9144 81.6446C74.8358 82.7094 74.6425 84.3743 74.708 85.8885C74.8155 88.3728 75.4458 90.8026 75.757 93.2697C76.1372 96.2838 76.0394 99.3393 76.3313 102.363C76.41 103.178 76.5222 104.008 76.8874 104.74C77.2527 105.473 77.9167 106.102 78.7262 106.222C85.3785 107.214 92.1613 107.327 98.8428 106.556C99.4599 106.485 100.083 106.405 100.665 106.19C101.585 105.849 102.373 105.167 102.843 104.306C103.031 103.961 103.171 103.566 103.103 103.178C103.034 102.791 102.698 102.431 102.304 102.451ZM49.1224 119.445C49.8185 127.104 50.5147 134.763 51.2109 142.422C51.336 143.799 51.4565 145.221 51.0262 146.535C50.5959 147.849 49.464 149.036 48.0824 149.081C48.8935 150.268 50.2934 150.946 51.709 151.194C53.1245 151.443 54.5759 151.311 56.007 151.179C67.7986 150.09 79.5903 149 91.3819 147.911C91.1288 146.437 90.8757 144.964 90.6226 143.49C90.5658 143.159 90.4033 142.74 90.0688 142.765C81.9613 143.369 73.8539 143.973 65.7465 144.578C62.4172 144.826 59.0717 145.074 55.7443 144.802C54.0607 144.664 51.9812 143.995 51.8151 142.314C50.486 128.863 48.9472 115.433 47.1996 102.031C47.1727 101.825 47.1393 101.604 46.9984 101.451C46.8102 101.247 46.4988 101.232 46.2213 101.23C44.5634 101.222 42.9055 101.213 41.2477 101.205C41.7319 103.952 42.3604 106.673 43.1298 109.353C43.2719 109.849 43.5085 110.427 44.0161 110.516C45.839 110.837 47.2777 112.336 48.0277 114.028C48.7777 115.72 48.9548 117.601 49.1224 119.445ZM42.7528 71.7692C41.3298 64.552 40.1259 57.2915 39.1431 50.0013C39.0876 49.589 39.0338 49.1614 39.1551 48.7635C39.4052 47.9433 40.3023 47.5134 41.1367 47.3155C42.7679 46.9286 44.4713 47.0577 46.1432 47.1809C61.429 48.308 76.7647 48.7591 92.0903 48.5322C91.4809 47.2959 90.255 46.4527 88.9512 46.0055C87.6474 45.5583 86.254 45.4591 84.8789 45.3641C71.3883 44.4318 57.8773 43.5581 44.3554 43.7209C42.701 43.7408 41.0274 43.7789 39.43 44.2097C37.8326 44.6405 36.2956 45.5081 35.3741 46.8821C33.9219 49.0473 34.2731 51.9074 34.7226 54.4755C35.7752 60.4894 37.0558 66.4634 38.5607 72.3803C39.9581 72.1766 41.3554 71.9729 42.7528 71.7692ZM75.666 57.6632C76.3965 57.6709 77.1556 57.6299 77.802 57.2896C78.9404 56.6903 79.4458 55.3097 79.521 54.0254C79.5962 52.7411 79.3427 51.4539 79.4244 50.17C79.443 49.8773 79.6065 49.4895 79.8904 49.563C80.096 51.041 80.3016 52.519 80.5072 53.997C80.6207 54.813 80.7387 55.6443 81.0963 56.3865C81.4538 57.1288 82.0965 57.7812 82.9055 57.9366C83.3702 58.0259 83.8554 57.9459 84.2983 57.7794C85.3587 57.3808 86.2474 56.366 86.2071 55.2338C86.1514 53.6707 86.0958 52.1077 86.0401 50.5446C86.0181 49.9261 85.7882 49.1021 85.1702 49.1345C81.0504 49.3504 76.9183 49.3314 72.8006 49.0775C72.5004 49.059 72.4211 49.4844 72.4529 49.7835C72.6177 51.3339 72.7826 52.8843 72.9474 54.4347C73.0718 55.6053 73.3375 56.9812 74.4115 57.4629C74.8008 57.6374 75.2394 57.6587 75.666 57.6632ZM96.7962 154.951C96.5988 155.089 96.4685 155.302 96.3484 155.511C95.7235 156.599 95.2214 157.757 94.8545 158.956C102.066 158.452 109.272 157.867 116.47 157.2C116.741 157.175 117.035 157.14 117.229 156.949C117.355 156.826 117.419 156.655 117.48 156.489C117.75 155.757 118.019 155.025 118.289 154.293C118.42 153.937 118.536 153.494 118.28 153.214C118.067 152.981 117.705 152.989 117.39 153.014C110.809 153.541 104.231 154.109 97.6561 154.717C97.3568 154.745 97.0423 154.778 96.7962 154.951ZM109.509 110.519C109.314 108.244 108.917 105.69 107.06 104.361C106.335 106.356 105.604 108.382 105.438 110.498C105.272 112.614 105.74 114.87 107.16 116.448C107.359 116.67 107.581 116.885 107.687 117.164C107.792 117.443 107.739 117.811 107.48 117.959C105.55 116.28 104.751 113.587 104.797 111.03C104.842 108.473 105.626 105.993 106.402 103.556C106.573 103.021 106.085 102.458 105.537 102.333C104.989 102.208 104.423 102.391 103.891 102.572C103.788 102.607 103.742 102.725 103.709 102.83C103.341 104.002 102.97 105.245 103.255 106.44C104.483 111.59 104.324 116.994 105.574 122.138C105.62 122.328 105.67 122.522 105.781 122.683C106.609 121.063 107.438 119.442 108.267 117.822C108.656 117.06 109.048 116.293 109.291 115.473C109.764 113.879 109.651 112.176 109.509 110.519ZM138.828 73.1414C138.988 73.2735 139.203 73.3151 139.409 73.3382C141.753 73.6004 143.965 72.005 145.263 70.0359C146.561 68.0668 147.174 65.7405 148.024 63.5409C148.823 61.4766 149.844 59.4986 151.065 57.6523C148.621 59.9456 145.612 61.5515 143.061 63.7251C140.51 65.8987 138.339 68.9473 138.519 72.294C138.536 72.6034 138.589 72.9442 138.828 73.1414ZM44.9603 50.9637C45.2934 52.4242 45.1557 54.0471 45.9648 55.3077C46.7492 56.5298 48.4039 57.1123 49.7808 56.651C51.1578 56.1896 52.1276 54.728 52.0175 53.28C51.9924 52.9509 51.9182 52.6278 51.8441 52.3062C51.554 51.0462 51.2639 49.7862 50.9738 48.5262C50.9449 48.4008 50.9126 48.2689 50.8237 48.176C50.6963 48.0427 50.4922 48.0272 50.3079 48.0201C48.5356 47.9522 46.7632 47.8844 44.9908 47.8165C44.8203 47.81 44.6332 47.8087 44.5007 47.9162C44.3329 48.0522 44.3233 48.302 44.3451 48.5168C44.4302 49.3547 44.773 50.1427 44.9603 50.9637ZM92.9368 52.326C92.9792 54.3433 94.2934 56.0975 95.6795 57.5638C95.8148 57.707 95.9537 57.8507 96.1228 57.9518C96.3962 58.1153 96.7292 58.1541 97.0466 58.1268C98.1174 58.0347 99.0333 57.225 99.4852 56.25C99.9372 55.275 99.9881 54.1596 99.8908 53.0893C99.7935 52.019 99.5566 50.965 99.461 49.8946C99.4418 49.6799 99.3631 49.3996 99.1475 49.4004C97.2527 49.4077 95.3578 49.4149 93.463 49.4222C93.2207 49.4231 92.9637 49.4281 92.759 49.5578C92.5543 49.6876 92.44 49.9906 92.5919 50.1795C93.0558 50.7566 92.9212 51.5857 92.9368 52.326ZM121.751 114.727C116.56 114.635 111.801 117.713 108.17 121.424C107.558 122.05 106.96 122.706 106.553 123.481C106.481 123.618 106.424 123.809 106.542 123.909C106.605 123.962 106.695 123.965 106.777 123.965C109.797 123.954 112.702 122.678 115.156 120.918C117.61 119.157 119.677 116.922 121.751 114.727ZM57.5144 56.2846C58.256 55.8577 58.7333 55.0076 58.7117 54.1522C58.7008 53.7183 58.5726 53.2974 58.4694 52.8758C58.2042 51.791 58.101 50.6668 58.1645 49.5519C58.1781 49.3145 58.1983 49.0705 58.127 48.8436C58.0556 48.6167 57.8662 48.4081 57.6287 48.3951C55.667 48.288 53.7052 48.1809 51.7434 48.0738C51.6728 48.0699 51.5959 48.0678 51.5389 48.1096C51.4506 48.1744 51.4556 48.3058 51.4719 48.4141C51.7133 50.0105 52.4858 51.5142 52.5354 53.128C52.5537 53.7218 52.4743 54.3303 52.6405 54.9007C52.8535 55.6311 53.4618 56.2076 54.1675 56.4918C54.8733 56.7759 55.6651 56.792 56.4139 56.657C56.7969 56.5879 57.1771 56.4788 57.5144 56.2846ZM136.012 78.1401C137.433 78.541 138.689 79.3789 140.067 79.9076C143.123 81.0796 146.76 80.5902 149.397 78.6523C150.529 77.8203 151.662 76.9882 152.794 76.1561C151.414 76.4827 149.986 76.6079 148.57 76.5262C146.204 76.3899 143.867 75.6812 141.503 75.8587C139.493 76.0096 137.538 76.822 136.012 78.1401ZM95.4403 67.2067C95.161 65.6598 94.8818 64.1129 94.6025 62.5659C94.2283 60.4926 93.854 58.4193 93.4797 56.346C93.4531 56.1989 93.421 56.0411 93.312 55.9388C93.203 55.8365 92.9904 55.8363 92.931 55.9734C92.5572 56.8362 91.7919 57.5201 90.8926 57.7948C90.347 57.9615 90.3003 58.706 90.3637 59.2729C90.8111 63.273 91.3408 67.2639 91.9523 71.2422C92.1301 69.6151 93.5244 68.2021 95.149 68.0026C95.4651 67.9638 95.4969 67.5201 95.4403 67.2067ZM65.5912 54.6244C65.4176 52.9567 65.1987 51.2938 64.9347 49.638C64.8802 49.2966 64.7348 48.8709 64.3894 48.8558C62.6038 48.7774 60.8182 48.6991 59.0327 48.6208C58.969 48.618 58.9018 48.6159 58.8455 48.6458C58.7014 48.7222 58.725 48.9324 58.7674 49.0899C59.1792 50.6188 59.3977 52.1996 59.4162 53.7828C59.4207 54.1724 59.4163 54.577 59.5793 54.9308C59.8193 55.4516 60.3656 55.7503 60.8848 55.9936C61.7898 56.4176 62.7792 56.7903 63.7665 56.6364C64.7539 56.4824 65.6947 55.6184 65.5912 54.6244ZM66.3633 54.6337C66.5435 55.5062 66.8736 56.5213 67.7284 56.7721C68.4499 56.9838 69.2299 57.0422 69.9535 56.8382C70.6772 56.6342 71.3371 56.1484 71.6609 55.4698C71.8913 54.9868 71.9433 54.4402 71.9734 53.9059C72.0556 52.4421 71.9991 50.9706 71.8047 49.5174C71.7943 49.4396 71.7827 49.3596 71.7434 49.2917C71.6392 49.1113 71.3937 49.086 71.1854 49.0815C69.3672 49.0418 67.549 49.0022 65.7308 48.9626C65.5823 48.9594 65.3748 49.1138 65.5004 49.1931C65.7039 51.0187 65.9919 52.8348 66.3633 54.6337ZM127.458 72.6913C126.038 75.9025 125.62 79.5485 126.276 82.9979C126.538 84.3759 127.053 85.8382 128.246 86.5763C128.597 86.7935 129.182 86.8577 129.312 86.4658C130.821 81.9135 130.117 76.6827 127.458 72.6913ZM35.3957 113.009C35.9982 113.422 36.6774 113.724 37.3883 113.893C38.2866 114.107 39.2195 114.11 40.1426 114.132C42.2998 114.184 44.4542 114.349 46.5941 114.627C46.8926 114.665 47.1394 114.342 47.1315 114.041C47.1236 113.741 46.9406 113.475 46.7508 113.241C45.6095 111.835 43.9429 110.866 42.1565 110.57C40.891 110.36 39.597 110.478 38.3147 110.441C37.0324 110.404 35.694 110.187 34.6715 109.412C34.6173 110.149 34.613 110.889 34.6586 111.626C34.677 111.924 34.7071 112.234 34.8592 112.491C34.9867 112.707 35.1891 112.867 35.3957 113.009ZM87.2947 55.7947C87.496 56.16 87.8192 56.4414 88.1502 56.6951C88.5089 56.9699 88.8964 57.2272 89.3369 57.3281C90.4216 57.5766 91.5308 56.7728 91.988 55.7583C92.4451 54.7437 92.3988 53.5807 92.293 52.4729C92.213 51.6353 92.104 50.8005 91.9663 49.9705C91.9433 49.832 91.9168 49.6873 91.8298 49.5773C91.6771 49.3842 91.3977 49.3618 91.1516 49.3553C89.8292 49.3201 88.5068 49.285 87.1844 49.2498C86.8916 49.242 86.4757 49.3821 86.5627 49.6618C86.9519 50.9139 87.1216 52.2339 87.0617 53.5437C87.0268 54.308 86.9253 55.1247 87.2947 55.7947ZM134.095 79.0426C135.499 76.7769 135.919 73.9241 135.228 71.3498C134.617 69.0737 133.197 67.0574 132.747 64.7441C131.698 67.9281 130.641 71.3553 131.59 74.5705C132.077 76.2183 133.059 77.6715 134.095 79.0426ZM110.835 114.689C115.011 113.613 118.865 111.321 121.803 108.164C122.682 107.22 123.582 106.295 124.502 105.39C122.249 105.699 120.049 106.396 118.029 107.441C114.947 109.035 112.242 111.517 110.835 114.689ZM136.276 86.9721C137.812 85.5287 139.348 84.0853 140.884 82.6419C135.69 83.304 130.839 86.3051 127.929 90.6576C128.679 91.2354 129.755 90.8951 130.63 90.5332C131.847 90.0299 133.075 89.521 134.158 88.7722C134.921 88.245 135.6 87.6072 136.276 86.9721ZM35.263 118.517C35.276 118.651 35.2918 118.792 35.3726 118.899C35.5493 119.133 35.9098 119.075 36.1913 118.993C39.4142 118.051 42.5919 116.955 45.7097 115.708C45.9345 115.619 46.1967 115.476 46.2012 115.234C43.8093 115.068 41.4175 114.902 39.0256 114.737C38.4406 114.696 37.8533 114.655 37.2798 114.533C36.4171 114.349 35.5944 113.979 34.884 113.456C34.9361 115.147 35.0996 116.833 35.263 118.517ZM110.82 102.334C110.627 102.474 110.549 102.719 110.483 102.948C110.255 103.733 110.026 104.565 110.238 105.354C110.345 105.756 110.562 106.119 110.775 106.477C111.367 107.465 111.958 108.453 112.549 109.441C112.604 109.533 112.664 109.63 112.759 109.679C113.041 109.828 113.32 109.479 113.451 109.189C114.301 107.301 115.172 105.306 114.979 103.245C114.949 102.928 114.863 102.568 114.58 102.423C114.45 102.356 114.299 102.348 114.153 102.341C113.276 102.297 112.4 102.253 111.523 102.21C111.281 102.198 111.017 102.192 110.82 102.334ZM124.216 95.3475C124.194 96.6758 125.353 97.7863 126.624 98.1729C127.895 98.5596 129.258 98.3931 130.579 98.2513C132.902 98.0019 135.358 97.7964 137.268 96.4506C137.691 96.152 138.092 95.7835 138.281 95.301C138.576 94.5482 138.279 93.6593 137.724 93.0711C137.169 92.483 136.4 92.1466 135.63 91.9001C132.878 91.0191 129.823 91.1206 127.135 92.1823C125.717 92.7423 124.242 93.8233 124.216 95.3475ZM35.0444 108.916C35.2945 109.149 35.8016 109.209 35.8991 108.881C36.2334 107.757 36.9847 106.794 37.8699 106.025C38.755 105.256 39.7755 104.663 40.7892 104.074C41.0626 103.915 41.0454 103.521 40.9926 103.209C40.8902 102.605 40.7878 102.001 40.6855 101.398C40.6596 101.244 40.6084 101.062 40.4586 101.021C40.3361 100.988 40.215 101.07 40.1149 101.149C39.3877 101.717 38.6605 102.284 37.9333 102.852C36.4762 103.99 34.9146 105.296 34.5986 107.117C34.4885 107.752 34.5734 108.476 35.0444 108.916ZM40.7172 104.851C39.0839 105.871 37.3551 107 36.6129 108.777C36.5667 108.887 36.5241 109.003 36.5277 109.123C36.5349 109.36 36.7253 109.559 36.9437 109.65C37.1621 109.74 37.4053 109.745 37.6418 109.747C39.04 109.764 40.4381 109.78 41.8363 109.797C41.9042 109.798 41.978 109.796 42.0317 109.755C42.1165 109.689 42.1079 109.56 42.091 109.454C41.868 108.044 41.645 106.635 41.422 105.225C41.3902 105.025 41.3255 104.785 41.1299 104.73C40.9876 104.691 40.8425 104.772 40.7172 104.851ZM110.181 102.421C109.151 102.155 108.041 102.213 107.045 102.584C107.238 103.217 107.58 103.804 108.035 104.285C109.57 105.903 110.024 108.252 110.198 110.475C110.291 111.663 110.324 112.855 110.296 114.046C110.97 113.006 111.644 111.966 112.318 110.926C112.385 110.823 112.455 110.713 112.462 110.59C112.469 110.467 112.413 110.35 112.357 110.241C111.691 108.956 110.714 107.848 110.097 106.54C109.479 105.231 109.29 103.561 110.181 102.421ZM41.2118 47.9816C40.644 48.0716 39.9966 48.2159 39.7269 48.7236C39.5404 49.0746 39.5954 49.4994 39.6554 49.8923C39.9021 51.5105 40.1489 53.1287 40.3957 54.7469C41.6585 52.4761 42.841 50.1617 44.0231 47.8479C43.8043 47.6005 43.4166 47.6318 43.0904 47.6836C42.4642 47.7829 41.838 47.8822 41.2118 47.9816ZM118.94 102.927C119.115 103.159 119.571 102.902 119.464 102.632C121.15 103.117 122.989 102.772 124.582 102.036C126.175 101.3 127.566 100.198 128.935 99.1002C128.36 99.0199 127.785 98.9396 127.21 98.8593C127.093 98.8429 126.941 98.8451 126.896 98.9547C126.586 99.7125 125.92 100.28 125.184 100.639C124.448 100.997 123.638 101.171 122.838 101.341C122.282 101.459 121.726 101.578 121.171 101.696C120.31 101.88 119.34 102.143 118.94 102.927ZM88.4275 91.1926C88.5355 91.1652 88.6514 91.1328 88.7205 91.0453C88.8277 90.9096 88.7741 90.7146 88.746 90.544C88.7179 90.3733 88.7611 90.1462 88.9315 90.1165C89.0868 90.1475 89.1584 90.3317 89.1623 90.49C89.1661 90.6483 89.1312 90.8134 89.1885 90.9611C89.3159 91.2899 89.7696 91.3028 90.1194 91.2582C90.3264 91.2319 90.5333 91.2055 90.7403 91.1791C90.8051 91.1709 90.8744 91.1606 90.9226 91.1165C91.0757 90.9762 90.8627 90.7473 90.8152 90.5452C90.7786 90.389 90.8516 90.2201 90.8038 90.067C90.7223 89.8062 90.3754 89.7663 90.1022 89.7754C88.0134 89.8446 85.9245 89.9139 83.8356 89.9832C83.8714 90.3785 83.9796 90.7672 84.1531 91.1242C84.1904 91.2011 84.2345 91.2805 84.3087 91.323C84.384 91.3662 84.4761 91.3634 84.5629 91.3594C85.0821 91.3353 85.6014 91.3111 86.1207 91.287C86.1648 91.2849 86.2114 91.2821 86.2482 91.2578C86.3429 91.1952 86.3102 91.0506 86.2666 90.9457C86.1916 90.7651 86.1166 90.5845 86.0416 90.4038C85.9764 90.2467 86.2608 90.1536 86.3805 90.2745C86.5003 90.3953 86.5047 90.5849 86.5611 90.7453C86.6784 91.0784 87.0324 91.2817 87.3829 91.3244C87.7334 91.3672 88.0852 91.2796 88.4275 91.1926ZM118.765 102.251C118.878 102.129 118.627 102.003 118.462 102.023C117.522 102.138 116.581 102.254 115.64 102.369C115.515 102.384 115.349 102.453 115.379 102.577C115.688 103.842 115.572 105.208 115.054 106.403C114.955 106.631 114.89 106.979 115.126 107.055C116.107 105.294 117.336 103.672 118.765 102.251ZM86.7151 92.1473C86.6856 92.045 86.6524 91.9377 86.5745 91.8652C86.4862 91.7829 86.3585 91.7619 86.2385 91.7488C85.6221 91.6813 84.9939 91.7236 84.3923 91.8732C84.5805 92.4837 84.7687 93.0942 84.957 93.7047C84.9926 93.8205 85.0407 93.9502 85.153 93.9956C85.2104 94.0188 85.2747 94.0149 85.3365 94.0105C85.945 93.9678 86.5535 93.9252 87.1619 93.8825C87.0299 93.2999 86.8808 92.7212 86.7151 92.1473ZM82.7533 94.2821C82.821 94.3191 82.9036 94.3077 82.9797 94.2953C83.5306 94.2055 84.0815 94.1157 84.6324 94.0259C84.4336 93.3889 84.2348 92.7518 84.036 92.1148C84.0068 92.0213 83.9705 91.9189 83.8844 91.8723C83.8162 91.8354 83.7336 91.8434 83.6566 91.8523C83.1655 91.9094 82.6743 91.9665 82.1832 92.0236C82.0908 92.0343 81.9814 92.0574 81.9472 92.1439C81.924 92.2026 81.9459 92.2685 81.9679 92.3277C82.1842 92.9116 82.4006 93.4955 82.617 94.0794C82.6459 94.1576 82.6802 94.2421 82.7533 94.2821ZM88.9426 91.7372C88.8261 91.636 88.6539 91.643 88.5001 91.6556C88.0149 91.6955 87.5298 91.7354 87.0446 91.7753C87.1896 92.397 87.3722 93.0099 87.591 93.6096C87.6197 93.6882 87.6522 93.771 87.719 93.8214C87.8024 93.8844 87.9166 93.8809 88.0209 93.8746C88.3521 93.8547 88.6833 93.8347 89.0145 93.8147C89.167 93.8055 89.3525 93.773 89.4036 93.629C89.4282 93.5598 89.4123 93.4835 89.3962 93.4119C89.2955 92.9632 89.1948 92.5146 89.0941 92.0659C89.0672 91.9461 89.0354 91.8177 88.9426 91.7372ZM86.0485 96.2036C86.0005 96.2111 85.9494 96.2202 85.9144 96.2539C85.8464 96.3195 85.8775 96.4325 85.9133 96.52C86.0408 96.8319 86.1682 97.1438 86.2957 97.4557C86.343 97.5714 86.3962 97.6945 86.5018 97.7614C86.5994 97.8233 86.7221 97.8246 86.8377 97.8239C87.2779 97.8213 87.7181 97.8186 88.1583 97.816C88.2227 97.8156 88.2927 97.8133 88.3424 97.7723C88.4324 97.6979 88.3988 97.5549 88.3574 97.4457C88.188 96.9993 88.0186 96.5529 87.8493 96.1064C87.7949 95.9631 87.5956 95.9611 87.4442 95.9848C86.979 96.0578 86.5137 96.1307 86.0485 96.2036ZM89.7523 91.6488C89.6598 91.6492 89.5557 91.6543 89.4933 91.7227C89.4181 91.8052 89.442 91.9344 89.4705 92.0423C89.5957 92.5154 89.7208 92.9886 89.846 93.4617C89.868 93.5449 89.8936 93.6339 89.9603 93.6883C90.049 93.7605 90.1772 93.747 90.2902 93.7298C90.7076 93.666 91.1249 93.6022 91.5423 93.5385C91.4975 93.0542 91.4206 92.5729 91.3122 92.0987C91.2784 91.9505 91.2315 91.7886 91.1031 91.7072C91.007 91.6462 90.8862 91.6447 90.7724 91.6451C90.4324 91.6464 90.0924 91.6476 89.7523 91.6488ZM90.6018 97.7604C90.4665 97.2692 90.3313 96.7781 90.196 96.2869C90.1444 96.0993 90.0712 95.8867 89.8899 95.816C89.8005 95.7812 89.701 95.7889 89.6055 95.7972C89.1601 95.836 88.7148 95.8747 88.2695 95.9134C88.3869 96.3533 88.5259 96.7874 88.6859 97.2137C88.7664 97.4283 88.8886 97.6716 89.1149 97.7082C89.6057 97.7876 90.1066 97.8052 90.6018 97.7604ZM91.377 97.7263C91.7806 97.7592 92.2237 97.7817 92.55 97.5418C92.4085 96.9916 92.267 96.4414 92.1256 95.8912C92.0937 95.7673 92.0511 95.6294 91.9376 95.5704C91.8542 95.5271 91.7542 95.539 91.6612 95.5519C91.2612 95.6076 90.8612 95.6633 90.4613 95.7189C90.5563 96.3013 90.7177 96.8729 90.9413 97.419C90.9756 97.5028 91.0142 97.5898 91.086 97.645C91.167 97.7074 91.2751 97.718 91.377 97.7263ZM127.349 89.8944C127.657 89.2616 127.965 88.6287 128.274 87.9959C128.306 87.9294 128.339 87.8575 128.327 87.7845C128.316 87.7134 128.264 87.6565 128.215 87.6042C127.776 87.1402 127.337 86.6761 126.898 86.2121C126.716 86.4611 126.737 86.7997 126.766 87.107C126.861 88.1159 126.957 89.1247 127.052 90.1336C127.187 90.1634 127.288 90.018 127.349 89.8944ZM91.8205 91.5757C91.7629 91.5717 91.6972 91.5706 91.657 91.612C91.6118 91.6585 91.6219 91.7336 91.635 91.797C91.7219 92.2159 91.8087 92.6348 91.8955 93.0536C91.9277 93.2089 91.9658 93.3749 92.083 93.4818C92.462 93.8274 93.1923 93.2328 93.5446 93.6057C93.6066 93.0109 93.5621 92.4052 93.4137 91.8259C93.4033 91.7852 93.3909 91.7422 93.3597 91.7141C93.3236 91.6816 93.2713 91.6767 93.2229 91.6733C92.7554 91.6408 92.2879 91.6083 91.8205 91.5757ZM83.0996 94.6824C83.0491 94.6892 82.9964 94.6969 82.9548 94.7264C82.8626 94.7919 82.8662 94.9275 82.8794 95.0398C82.9147 95.3394 82.9535 95.6495 83.1102 95.9073C83.2669 96.165 83.5766 96.3559 83.8679 96.2778C84.2854 96.1658 84.7029 96.0539 85.1204 95.9419C85.1023 95.5429 85.0215 95.1469 84.8819 94.7727C84.8471 94.6793 84.8032 94.5809 84.7173 94.5303C84.6282 94.4779 84.5169 94.4901 84.4144 94.504C83.9761 94.5635 83.5379 94.6229 83.0996 94.6824ZM92.8365 91.1815C92.9623 91.1624 93.0961 91.1395 93.1895 91.0532C93.4675 90.7963 93.1497 90.2743 93.3751 89.9702C93.4631 89.8514 93.2476 89.7452 93.0999 89.7515C92.4405 89.7793 91.7811 89.8071 91.1217 89.8349C91.1471 90.1078 91.1945 90.3786 91.2632 90.6438C91.3398 90.9394 91.6281 91.1418 91.9263 91.2073C92.2245 91.2729 92.5346 91.2273 92.8365 91.1815ZM87.5066 94.7334C87.4217 94.3254 86.8757 94.2301 86.466 94.3064C86.0564 94.3828 85.5989 94.5307 85.2508 94.3017C85.2728 94.7324 85.3734 95.159 85.5461 95.5541C85.5824 95.6371 85.6263 95.7237 85.7052 95.7682C85.7942 95.8185 85.9042 95.8025 86.0049 95.7851C86.4087 95.7154 86.8125 95.6457 87.2163 95.5759C87.4164 95.5414 87.6802 95.383 87.5749 95.2093C87.491 95.0708 87.5396 94.8919 87.5066 94.7334ZM85.0121 96.408C84.6822 96.4639 84.3523 96.5197 84.0224 96.5756C83.8437 96.6059 83.6237 96.6775 83.6046 96.8577C83.5564 97.3131 84.0102 97.6805 84.4591 97.7712C84.908 97.8619 85.374 97.7731 85.8297 97.8181C85.811 97.431 85.7299 97.0469 85.5907 96.6851C85.5576 96.599 85.5183 96.5103 85.4452 96.4539C85.3267 96.3625 85.1597 96.383 85.0121 96.408ZM93.7068 95.5244C93.269 95.478 92.8239 95.5012 92.3933 95.593C92.6312 96.1597 92.8002 96.7553 92.8954 97.3626C92.939 97.6409 93.3366 97.6464 93.6096 97.5768C93.7115 97.5508 93.8226 97.5185 93.8807 97.431C93.9309 97.3555 93.9284 97.2581 93.9242 97.1676C93.9008 96.6675 93.8774 96.1675 93.854 95.6674C93.8525 95.6359 93.8504 95.6025 93.8323 95.5766C93.8054 95.5383 93.7533 95.5294 93.7068 95.5244ZM86.5577 100.004C86.9706 99.5925 86.7589 98.7606 86.1994 98.596C85.6399 98.4313 85.0115 99.0159 85.1353 99.5859C85.2634 100.175 86.1309 100.43 86.5577 100.004ZM89.8026 95.1742C90.0652 94.8314 89.6721 94.3254 89.2467 94.2509C88.8214 94.1763 88.3902 94.3394 87.9585 94.333C87.7994 94.3307 87.7928 94.57 87.8445 94.7205C87.9113 94.9151 87.9782 95.1098 88.0451 95.3045C88.0724 95.3841 88.122 95.4796 88.2061 95.4743C88.514 95.4551 88.8218 95.4358 89.1297 95.4165C89.3755 95.4011 89.6528 95.3698 89.8026 95.1742ZM94.0584 98.4837C94.0267 98.3975 93.9797 98.3135 93.9055 98.2595C93.8389 98.2109 93.7558 98.1905 93.674 98.1806C93.0279 98.1027 92.4005 98.7473 92.496 99.3911C92.771 99.718 93.2889 99.8083 93.6584 99.5937C94.0278 99.3791 94.2061 98.8846 94.0584 98.4837ZM90.0695 94.5911C90.0554 94.8742 90.3044 95.1161 90.5774 95.1925C90.8504 95.2688 91.1408 95.2195 91.4199 95.1697C91.5628 95.1443 91.7229 95.1074 91.7978 94.983C91.9573 94.7178 91.6406 94.2314 91.933 94.1297C91.7368 94.1027 91.5406 94.0758 91.3444 94.0488C91.0854 94.0132 90.8174 93.9782 90.566 94.0499C90.3146 94.1216 90.0826 94.33 90.0695 94.5911ZM92.4144 94.9535C92.7116 95.2119 93.2092 95.1763 93.4854 94.8955C93.7616 94.6147 93.7976 94.1388 93.5893 93.8046C93.0691 93.901 92.5489 93.9975 92.0287 94.0939C92.0942 94.4071 92.1729 94.7435 92.4144 94.9535ZM132.612 89.9813C132.207 90.1314 131.802 90.2815 131.397 90.4315C131.195 90.5061 130.991 90.5821 130.817 90.7072C131.48 90.9658 132.315 90.6278 132.612 89.9813ZM94.9596 57.8306C94.949 57.6517 94.7597 57.5055 94.5839 57.5404C94.5952 57.7225 94.7768 57.8756 94.9581 57.856L94.9596 57.8306Z" fill="#00160A"/>
</svg>
